<?xml version="1.0" encoding="UTF-8" standalone="no"?>
<svg
   xmlns:dc="http://purl.org/dc/elements/1.1/"
   xmlns:cc="http://creativecommons.org/ns#"
   xmlns:rdf="http://www.w3.org/1999/02/22-rdf-syntax-ns#"
   xmlns:svg="http://www.w3.org/2000/svg"
   xmlns="http://www.w3.org/2000/svg"
   viewBox="0 0 900 900"
   height="900"
   width="900"
   xml:space="preserve"
   version="1.1"
   id="svg3336"><metadata
     id="metadata3342"><rdf:RDF><cc:Work
         rdf:about=""><dc:format>image/svg+xml</dc:format><dc:type
           rdf:resource="http://purl.org/dc/dcmitype/StillImage" /><dc:title></dc:title></cc:Work></rdf:RDF></metadata><defs
     id="defs3340"><clipPath
       id="clipPath3346"
       clipPathUnits="userSpaceOnUse"><path
         id="path3348"
         d="m 166.701,87.994 390.618,0 0,632.006 -390.618,0 0,-632.006 z" /></clipPath><clipPath
       id="clipPath3354"
       clipPathUnits="userSpaceOnUse"><path
         id="path3356"
         d="M 0,720 720,720 720,0 0,0 0,720 Z" /></clipPath><clipPath
       id="clipPath3362"
       clipPathUnits="userSpaceOnUse"><path
         id="path3364"
         d="m 204.121,177.089 309.758,0 0,-89.095 -309.758,0 0,89.095 z" /></clipPath><clipPath
       id="clipPath3382"
       clipPathUnits="userSpaceOnUse"><path
         id="path3384"
         d="m 467.865,614.167 c -10.467,-10.093 -28.148,-20.186 -59.269,-17.355 l 0,0 c -47.954,4.363 -96.653,-10.328 -131.203,-31.215 l 0,0 c 1.411,10.164 11.899,22.485 19.809,28.238 l 0,0 c -31.394,-4.633 -79.413,-45.258 -93.356,-91.085 l 0,0 C 181.67,487.486 166.702,457.677 166.702,423.401 l 0,0 c 0,-49.816 31.854,-140.714 71.093,-140.714 l 0,0 c 4.174,0 8.262,1.039 12.239,2.936 l 0,0 C 278.704,266.417 317.406,257.446 360,257.446 l 0,0 c 42.602,0 81.311,8.975 109.984,28.189 l 0,0 c 3.984,-1.906 8.082,-2.948 12.265,-2.948 l 0,0 c 39.239,0 71.049,90.898 71.049,140.714 l 0,0 c 0,43.093 -23.803,79.122 -55.626,88.065 l 0,0 c 15.646,22.648 38.096,8.674 22.462,20.278 l 0,0 c -8.961,6.653 -19.898,11.56 -33.627,11.446 l 0,0 c 7.305,25.844 3.952,51.786 0.602,73.953 l 0,0 c -1.635,10.815 -2.564,14.862 -4.099,14.863 l 0,0 c -2.279,10e-4 -5.894,-8.919 -15.145,-17.839" /></clipPath><clipPath
       id="clipPath3426"
       clipPathUnits="userSpaceOnUse"><path
         id="path3428"
         d="M 0,720 720,720 720,0 0,0 0,720 Z" /></clipPath><clipPath
       id="clipPath3438"
       clipPathUnits="userSpaceOnUse"><path
         id="path3440"
         d="m 204.177,351.338 c 0,-11.976 1.355,-23.634 3.917,-34.832 l 0,0 c -12.786,-8.821 -21.172,-23.582 -21.172,-40.311 l 0,0 c 0,-27.017 21.86,-48.92 48.825,-48.92 l 0,0 c 8.322,0 16.156,2.092 23.013,5.771 l 0,0 c 27.05,-23.073 62.107,-37.005 100.417,-37.005 l 0,0 c 38.309,0 73.365,13.932 100.415,37.005 l 0,0 c 6.858,-3.679 14.691,-5.771 23.014,-5.771 l 0,0 c 26.965,0 48.825,21.903 48.825,48.92 l 0,0 c 0,16.729 -8.387,31.49 -21.171,40.311 l 0,0 c 2.561,11.198 3.916,22.856 3.916,34.832 l 0,0 c 0,85.77 -69.396,155.299 -154.999,155.299 l 0,0 c -85.605,0 -155,-69.529 -155,-155.299" /></clipPath><clipPath
       id="clipPath3470"
       clipPathUnits="userSpaceOnUse"><path
         id="path3472"
         d="M 0,720 720,720 720,0 0,0 0,720 Z" /></clipPath><clipPath
       id="clipPath3538"
       clipPathUnits="userSpaceOnUse"><path
         id="path3540"
         d="m 327.459,297.046 c -3.842,0 -6.73,-3.273 -6.083,-7.06 l 0,0 c 3.322,-19.421 19.351,-33.308 38.624,-33.308 l 0,0 c 19.273,0 35.302,13.887 38.623,33.308 l 0,0 c 0.648,3.787 -2.24,7.06 -6.082,7.06 l 0,0 -65.082,0 z" /></clipPath><clipPath
       id="clipPath3550"
       clipPathUnits="userSpaceOnUse"><path
         id="path3552"
         d="M 0,720 720,720 720,0 0,0 0,720 Z" /></clipPath><clipPath
       id="clipPath3558"
       clipPathUnits="userSpaceOnUse"><path
         id="path3560"
         d="m 241.337,157.038 237.326,0 0,-38.992 -237.326,0 0,38.992 z" /></clipPath></defs><g
     clip-path="url(#clipPath3346)"
     transform="matrix(1.25,0,0,-1.25,0,900)"
     id="g3344"><g
       id="g3570"><g
         id="g3350"><g
           id="g3352"
           clip-path="url(#clipPath3354)"><g
             id="g3358"><g
               id="g3360" /><g
               id="g3366"><g
                 clip-path="url(#clipPath3362)"
                 id="g3368"
                 style="opacity:0.10000598"><g
                   transform="translate(513.8793,132.5416)"
                   id="g3370"><path
                     d="m 0,0 c 0,-24.603 -69.342,-44.548 -154.879,-44.548 -85.538,0 -154.88,19.945 -154.88,44.548 0,24.603 69.342,44.548 154.88,44.548 C -69.342,44.548 0,24.603 0,0"
                     style="fill:#000000;fill-opacity:1;fill-rule:nonzero;stroke:none"
                     id="path3372" /></g></g></g></g><g
             id="g3374"
             transform="translate(497.6721,511.4658)"><path
               d="m 0,0 c 15.646,22.648 38.096,8.674 22.462,20.279 -8.961,6.652 -19.898,11.56 -33.627,11.445 7.305,25.844 3.952,51.786 0.602,73.953 -6.809,45.052 -1.367,-27.349 -78.513,-20.331 -47.955,4.363 -96.654,-10.328 -131.203,-31.215 1.411,10.164 11.899,22.485 19.809,28.238 -31.394,-4.633 -79.413,-45.258 -93.356,-91.085 -22.176,-15.264 -37.145,-45.073 -37.145,-79.348 0,-49.817 31.855,-140.715 71.095,-140.715 4.173,0 8.261,1.039 12.237,2.937 28.67,-19.206 67.373,-28.178 109.967,-28.178 42.602,0 81.311,8.975 109.984,28.189 3.984,-1.906 8.082,-2.948 12.265,-2.948 39.239,0 71.05,90.898 71.05,140.715 C 55.627,-44.972 31.823,-8.943 0,0"
               style="fill:#ffd527;fill-opacity:1;fill-rule:nonzero;stroke:none"
               id="path3376" /></g></g></g><g
         id="g3378"><g
           id="g3380"
           clip-path="url(#clipPath3382)"><g
             id="g3386"
             transform="translate(541,565.2899)"><path
               d="m 0,0 c 0,-96.65 -78.35,-175 -175,-175 -96.65,0 -175,78.35 -175,175 0,96.65 78.35,175 175,175 C -78.35,175 0,96.65 0,0"
               style="fill:#ffec3e;fill-opacity:1;fill-rule:nonzero;stroke:none"
               id="path3388" /></g><g
             id="g3390"
             transform="translate(270.4791,465.3515)"><path
               d="m 0,0 c -0.669,-39.792 -17.485,-71.777 -37.561,-71.439 -20.077,0.337 -35.809,32.868 -35.141,72.66 0.669,39.792 17.486,71.777 37.562,71.44 C -15.064,72.323 0.669,39.792 0,0"
               style="fill:#ffec3e;fill-opacity:1;fill-rule:nonzero;stroke:none"
               id="path3392" /></g><g
             id="g3394"
             transform="translate(553.7316,432.3755)"><path
               d="m 0,0 c 9.614,-66.873 -0.763,-123.697 -23.179,-126.92 -22.415,-3.222 -48.381,48.377 -57.995,115.25 -9.614,66.873 0.764,123.697 23.179,126.92 C -35.579,118.472 -9.614,66.873 0,0"
               style="fill:#ffec3e;fill-opacity:1;fill-rule:nonzero;stroke:none"
               id="path3396" /></g><g
             id="g3398"
             transform="translate(497.6721,503.4658)"><path
               d="m 0,0 c 30.739,-8.638 53.99,-42.55 55.539,-83.688 0.057,1.576 0.088,3.119 0.088,4.624 0,40.286 -20.806,74.392 -49.517,85.971 C 4.026,5.098 1.959,2.836 0,0"
               style="fill:#fff3b6;fill-opacity:1;fill-rule:nonzero;stroke:none"
               id="path3400" /></g><g
             id="g3402"
             transform="translate(486.5068,535.1898)"><path
               d="m 0,0 c 12.092,0.101 22.017,-3.696 30.335,-9.148 8.34,1.979 12.67,-0.258 3.293,6.703 C 25.133,3.86 14.859,8.591 2.119,8.97 1.542,5.982 0.845,2.991 0,0"
               style="fill:#fff3b6;fill-opacity:1;fill-rule:nonzero;stroke:none"
               id="path3404" /></g><g
             id="g3406"
             transform="translate(203.8457,494.75)"><path
               d="m 0,0 c 12.236,40.214 50.71,76.416 81.165,87.813 3.758,4.99 8.287,9.432 12.191,12.272 C 61.962,95.452 13.943,54.827 0,9 -22.176,-6.264 -37.145,-36.073 -37.145,-70.348 c 0,-1.523 0.031,-3.085 0.09,-4.68 C -35.856,-42.581 -21.238,-14.619 0,0"
               style="fill:#fff3b6;fill-opacity:1;fill-rule:nonzero;stroke:none"
               id="path3408" /></g><g
             id="g3410"
             transform="translate(277.3936,557.597)"><path
               d="m 0,0 c 34.549,20.887 83.248,35.577 131.203,31.215 77.146,-7.018 71.703,65.383 78.512,20.331 1.674,-11.073 3.348,-23.089 3.694,-35.563 0.45,15.688 -1.621,30.848 -3.694,44.563 -6.809,45.052 -1.366,-27.349 -78.512,-20.331 C 85.392,44.382 38.912,31.157 4.727,11.758 2.3,7.839 0.523,3.771 0,0"
               style="fill:#fff3b6;fill-opacity:1;fill-rule:nonzero;stroke:none"
               id="path3412" /></g><g
             id="g3414"
             transform="translate(520.4235,356.257)"><path
               d="m 0,0 c 0,-34.781 -17.092,-62.977 -38.176,-62.977 -21.084,0 -38.176,28.196 -38.176,62.977 0,34.781 17.092,62.977 38.176,62.977 C -17.092,62.977 0,34.781 0,0"
               style="fill:#ffd527;fill-opacity:1;fill-rule:nonzero;stroke:none"
               id="path3416" /></g><g
             id="g3418"
             transform="translate(521.0788,308.5042)"><path
               d="m 0,0 c 0,-5.795 -5.13,-10.493 -11.458,-10.493 -6.328,0 -11.458,4.698 -11.458,10.493 0,5.795 5.13,10.493 11.458,10.493 C -5.13,10.493 0,5.795 0,0"
               style="fill:#ffd527;fill-opacity:1;fill-rule:nonzero;stroke:none"
               id="path3420" /></g></g></g><g
         id="g3422"><g
           id="g3424"
           clip-path="url(#clipPath3426)"><g
             id="g3430"
             transform="translate(510.2593,316.5056)"><path
               d="m 0,0 c 2.561,11.198 3.917,22.857 3.917,34.833 0,85.769 -69.396,155.298 -155,155.298 -85.604,0 -155,-69.529 -155,-155.298 0,-11.976 1.356,-23.635 3.917,-34.833 -12.785,-8.821 -21.171,-23.582 -21.171,-40.311 0,-27.017 21.859,-48.919 48.825,-48.919 8.322,0 16.155,2.092 23.013,5.771 27.05,-23.074 62.107,-37.006 100.416,-37.006 38.309,0 73.366,13.932 100.416,37.006 6.858,-3.679 14.691,-5.771 23.013,-5.771 26.966,0 48.825,21.902 48.825,48.919 C 21.171,-23.582 12.785,-8.821 0,0"
               style="fill:#ffd194;fill-opacity:1;fill-rule:nonzero;stroke:none"
               id="path3432" /></g></g></g><g
         id="g3434"><g
           id="g3436"
           clip-path="url(#clipPath3438)"><g
             id="g3442"
             transform="translate(536.764,368.5754)"><path
               d="m 0,0 c 0,-90.668 -72.664,-164.169 -162.3,-164.169 -89.636,0 -162.3,73.501 -162.3,164.169 0,90.668 72.664,164.169 162.3,164.169 C -72.664,164.169 0,90.668 0,0"
               style="fill:#ffe8bb;fill-opacity:1;fill-rule:nonzero;stroke:none"
               id="path3444" /></g><g
             id="g3446"
             transform="translate(509.8015,417.179)"><path
               d="m 0,0 c -1.271,-15.12 -124.594,-66.092 -212.65,-21.714 -76.295,38.45 -99.35,-49.546 -91.148,-3.044 8.079,45.803 40.975,92.017 124.569,109.54 C -95.635,102.305 3.979,47.33 0,0"
               style="fill:#ffd527;fill-opacity:1;fill-rule:nonzero;stroke:none"
               id="path3448" /></g><g
             id="g3450"
             transform="translate(515.3167,427.8619)"><path
               d="m 0,0 c -6.935,-32.941 -133.547,-67.284 -221.646,-22.885 -76.296,38.45 -99.931,-39.014 -88.734,9.953 10.367,45.34 39.76,90.042 123.353,107.565 C -103.433,112.155 10.933,51.931 0,0"
               style="fill:#ffec3e;fill-opacity:1;fill-rule:nonzero;stroke:none"
               id="path3452" /></g><g
             id="g3454"
             transform="translate(282.7698,276.8618)"><path
               d="m 0,0 c 0,-22.983 -20.15,-41.614 -45.007,-41.614 -24.857,0 -45.007,18.631 -45.007,41.614 0,22.983 20.15,41.614 45.007,41.614 C -20.15,41.614 0,22.983 0,0"
               style="fill:#ffe8bb;fill-opacity:1;fill-rule:nonzero;stroke:none"
               id="path3456" /></g><g
             id="g3458"
             transform="translate(532.8563,276.8618)"><path
               d="m 0,0 c 0,-21.045 -17.677,-38.106 -39.482,-38.106 -21.805,0 -39.481,17.061 -39.481,38.106 0,21.045 17.676,38.106 39.481,38.106 C -17.677,38.106 0,21.045 0,0"
               style="fill:#ffe8bb;fill-opacity:1;fill-rule:nonzero;stroke:none"
               id="path3460" /></g><g
             id="g3462"
             transform="translate(460.1425,244.0457)"><path
               d="m 0,0 c 0,-22.983 -49.821,-41.614 -111.278,-41.614 -61.457,0 -111.278,18.631 -111.278,41.614 0,22.983 49.821,41.614 111.278,41.614 C -49.821,41.614 0,22.983 0,0"
               style="fill:#ffe8bb;fill-opacity:1;fill-rule:nonzero;stroke:none"
               id="path3464" /></g></g></g><g
         id="g3466"><g
           id="g3468"
           clip-path="url(#clipPath3470)"><g
             id="g3474"
             transform="translate(387.6763,118.0457)"><path
               d="m 0,0 -57,0 0,90.492 C -57,105.561 -44.671,118 -29.602,118 l 1.92,0 C -12.393,118 0,105.497 0,90.208 L 0,0 Z"
               style="fill:#f1f0ff;fill-opacity:1;fill-rule:nonzero;stroke:none"
               id="path3476" /></g><g
             id="g3478"
             transform="translate(359.9921,236.0457)"><path
               d="m 0,0 -1.915,0 c -15.022,0 -27.313,-12.439 -27.313,-27.508 l 0,-5 C -29.228,-17.439 -16.937,-5 -1.915,-5 L 0,-5 c 15.241,0 27.596,-12.503 27.596,-27.792 l 0,5 C 27.596,-12.503 15.241,0 0,0"
               style="fill:#ffffff;fill-opacity:1;fill-rule:nonzero;stroke:none"
               id="path3480" /></g><g
             id="g3482"
             transform="translate(387.6763,118.0457)"><path
               d="M 0,0 37.372,0 56.894,97.998 C 56.894,113.345 44.247,126 28.647,126 l -0.571,0 C 12.458,126 0,113.954 0,98.574 L 0,0 Z"
               style="fill:#ff502e;fill-opacity:1;fill-rule:nonzero;stroke:none"
               id="path3484" /></g><g
             id="g3486"
             transform="translate(415.7527,244.0457)"><path
               d="m 0,0 0.571,0 c 15.6,0 28.247,-12.655 28.247,-28.002 L 28.56,-29.294 C 26.718,-15.67 14.893,-5 0.571,-5 L 0,-5 c -15.619,0 -28.076,-12.046 -28.076,-27.426 l 0,5 C -28.076,-12.046 -15.619,0 0,0"
               style="fill:#ffaaa1;fill-opacity:1;fill-rule:nonzero;stroke:none"
               id="path3488" /></g><g
             id="g3490"
             transform="translate(330.6763,118.0457)"><path
               d="m 0,0 -37.372,0 -19.522,97.998 c 0,15.347 12.647,28.002 28.247,28.002 l 0.571,0 C -12.458,126 0,113.954 0,98.574 L 0,0 Z"
               style="fill:#ff502e;fill-opacity:1;fill-rule:nonzero;stroke:none"
               id="path3492" /></g><g
             id="g3494"
             transform="translate(302.5999,244.0457)"><path
               d="m 0,0 -0.571,0 c -15.6,0 -28.247,-12.655 -28.247,-28.002 l 0.258,-1.292 C -26.718,-15.67 -14.893,-5 -0.571,-5 L 0,-5 c 15.619,0 28.076,-12.046 28.076,-27.426 l 0,5 C 28.076,-12.046 15.619,0 0,0"
               style="fill:#ffaaa1;fill-opacity:1;fill-rule:nonzero;stroke:none"
               id="path3496" /></g><g
             id="g3498"
             transform="translate(293.3044,118.0457)"><path
               d="m 0,0 -23.043,0 c -8.747,0 -16.603,5.962 -19.801,13.971 l -33.743,84.874 c 0,15.347 12.647,28.155 28.247,28.155 l 0.571,0 c 15.6,0 28.247,-13.155 28.247,-28.502 L 0,0 Z"
               style="fill:#f1f0ff;fill-opacity:1;fill-rule:nonzero;stroke:none"
               id="path3500" /></g><g
             id="g3502"
             transform="translate(244.9647,240.0457)"><path
               d="m 0,0 0.571,0 c 15.6,0 28.247,-13.155 28.247,-28.502 L 47.349,-122 l 0.991,0 -19.522,98.498 C 28.818,-8.155 16.171,5 0.571,5 L 0,5 C -15.6,5 -28.247,-7.808 -28.247,-23.155 l 0.32,-0.804 C -25.875,-10.543 -14.154,0 0,0"
               style="fill:#ffffff;fill-opacity:1;fill-rule:nonzero;stroke:none"
               id="path3504" /></g><g
             id="g3506"
             transform="translate(425.0482,118.0457)"><path
               d="M 0,0 23.043,0 C 31.79,0 39.646,5.962 42.844,13.971 L 76.587,98.845 C 76.587,114.192 63.94,127 48.34,127 l -0.571,0 C 32.169,127 19.522,113.845 19.522,98.498 L 0,0 Z"
               style="fill:#f1f0ff;fill-opacity:1;fill-rule:nonzero;stroke:none"
               id="path3508" /></g><g
             id="g3510"
             transform="translate(473.3878,240.0457)"><path
               d="m 0,0 -0.571,0 c -15.6,0 -28.247,-13.155 -28.247,-28.502 L -47.349,-122 l -0.991,0 19.522,98.498 C -28.818,-8.155 -16.171,5 -0.571,5 L 0,5 C 15.6,5 28.247,-7.808 28.247,-23.155 l -0.32,-0.804 C 25.875,-10.543 14.154,0 0,0"
               style="fill:#ffffff;fill-opacity:1;fill-rule:nonzero;stroke:none"
               id="path3512" /></g><g
             id="g3514"
             transform="translate(301.8577,322.257)"><path
               d="m 0,0 c 0,-19.33 -15.67,-35 -35,-35 -19.33,0 -35,15.67 -35,35 0,19.33 15.67,35 35,35 C -15.67,35 0,19.33 0,0"
               style="fill:#333333;fill-opacity:1;fill-rule:nonzero;stroke:none"
               id="path3516" /></g><g
             id="g3518"
             transform="translate(289.5315,331.497)"><path
               d="m 0,0 c 0,-6.904 -5.596,-12.5 -12.5,-12.5 -6.904,0 -12.5,5.596 -12.5,12.5 0,6.904 5.596,12.5 12.5,12.5 C -5.596,12.5 0,6.904 0,0"
               style="fill:#ffffff;fill-opacity:1;fill-rule:nonzero;stroke:none"
               id="path3520" /></g><g
             id="g3522"
             transform="translate(488.1423,322.257)"><path
               d="m 0,0 c 0,-19.33 -15.67,-35 -35,-35 -19.33,0 -35,15.67 -35,35 0,19.33 15.67,35 35,35 C -15.67,35 0,19.33 0,0"
               style="fill:#333333;fill-opacity:1;fill-rule:nonzero;stroke:none"
               id="path3524" /></g><g
             id="g3526"
             transform="translate(475.8162,331.497)"><path
               d="m 0,0 c 0,-6.904 -5.596,-12.5 -12.5,-12.5 -6.904,0 -12.5,5.596 -12.5,12.5 0,6.904 5.596,12.5 12.5,12.5 C -5.596,12.5 0,6.904 0,0"
               style="fill:#ffffff;fill-opacity:1;fill-rule:nonzero;stroke:none"
               id="path3528" /></g><g
             id="g3530"
             transform="translate(360,256.6779)"><path
               d="m 0,0 c 19.273,0 35.302,13.887 38.623,33.308 0.648,3.787 -2.24,7.06 -6.082,7.06 l -65.082,0 c -3.842,0 -6.73,-3.273 -6.082,-7.06 C -35.302,13.887 -19.273,0 0,0"
               style="fill:#333333;fill-opacity:1;fill-rule:nonzero;stroke:none"
               id="path3532" /></g></g></g><g
         id="g3534"><g
           id="g3536"
           clip-path="url(#clipPath3538)"><g
             id="g3542"
             transform="translate(384.9525,260.8618)"><path
               d="m 0,0 c 0,-8.837 -14.252,-16 -31.833,-16 -17.581,0 -31.834,7.163 -31.834,16 0,8.837 14.253,16 31.834,16 C -14.252,16 0,8.837 0,0"
               style="fill:#ff502e;fill-opacity:1;fill-rule:nonzero;stroke:none"
               id="path3544" /></g></g></g><g
         id="g3546"><g
           id="g3548"
           clip-path="url(#clipPath3550)"><g
             id="g3554"><g
               id="g3556" /><g
               id="g3562"><g
                 clip-path="url(#clipPath3558)"
                 id="g3564"
                 style="opacity:0.14999402"><g
                   transform="translate(431.5703,134.0285)"
                   id="g3566"><path
                     d="m 0,0 -143.141,0 c -19.137,0 -36.16,9.011 -47.092,23.009 l 9.947,-25.021 c 3.198,-8.009 11.054,-13.971 19.801,-13.971 l 23.043,0 37.372,0 57,0 37.372,0 23.042,0 c 8.748,0 16.603,5.962 19.801,13.971 l 9.948,25.021 C 36.161,9.011 19.138,0 0,0"
                     style="fill:#000000;fill-opacity:1;fill-rule:nonzero;stroke:none"
                     id="path3568" /></g></g></g></g></g></g></g></g></svg>