<?xml version="1.0" encoding="UTF-8" standalone="no"?>
<svg width="64px" height="64px" viewBox="0 0 64 64" version="1.1" xmlns="http://www.w3.org/2000/svg" xmlns:xlink="http://www.w3.org/1999/xlink" xmlns:sketch="http://www.bohemiancoding.com/sketch/ns">
    <!-- Generator: Sketch 3.3.3 (12081) - http://www.bohemiancoding.com/sketch -->
    <title>Group</title>
    <desc>Created with Sketch.</desc>
    <defs></defs>
    <g id="Page-1" stroke="none" stroke-width="1" fill="none" fill-rule="evenodd" sketch:type="MSPage">
        <g id="Group" sketch:type="MSLayerGroup" transform="translate(-0.607440, -0.504710)">
            <path d="M24.858,63.551 C7.72,59.277 -2.713,41.913 1.563,24.771 C5.835,7.626 23.198,-2.808 40.338,1.466 C57.482,5.74 67.914,23.106 63.64,40.25 C59.366,57.393 42.003,67.826 24.858,63.551 Z" id="Shape" fill="#F7931A" sketch:type="MSShapeGroup"></path>
            <path d="M39.672,19.876 L41.11,14.108 L37.599,13.233 L36.199,18.849 C35.276,18.619 34.328,18.402 33.386,18.187 L34.796,12.534 L31.287,11.659 L29.848,17.425 C29.084,17.251 22.7913255,15.6943522 22.7913255,15.6943522 L21.795,19.3873912 C21.795,19.3873912 22.9227522,19.680292 23.7462052,19.876 C24.9582581,20.1640655 26.0199999,20.559036 26.02,22.097 L24.382,28.668 C24.48,28.693 24.607,28.729 24.747,28.785 C24.63,28.756 24.505,28.724 24.376,28.693 L22.08,37.898 C21.906,38.33 21.465,38.978 20.471,38.732 C20.506,38.783 17.919,38.095 17.919,38.095 L16.176,42.114 L20.745,43.253 C21.595,43.466 22.428,43.689 23.248,43.899 L21.795,49.733 L25.302,50.608 L26.741,44.836 C27.699,45.096 28.629,45.336 29.539,45.562 L28.105,51.307 L31.616,52.182 L33.069,46.359 C39.056,47.492 43.558,47.035 45.453,41.62 C46.98,37.26 45.377,34.745 42.227,33.105 C44.521,32.576 46.249,31.067 46.71,27.95 C47.347,23.692 44.105,21.403 39.672,19.876 Z M38.688,39.199 C37.603,43.559 30.262,41.202 27.882,40.611 L29.81,32.882 C32.19,33.476 39.822,34.652 38.688,39.199 Z M30.692,29.344 L32.44,22.334 C34.422,22.828 40.805,23.75 39.774,27.887 C38.784,31.853 32.674,29.838 30.692,29.344 Z" id="Shape" fill="#FFFFFF" sketch:type="MSShapeGroup"></path>
        </g>
    </g>
</svg>