<?xml version="1.0" encoding="UTF-8" standalone="no"?>
<svg width="1580px" height="500px" viewBox="0 0 1580 500" version="1.1" xmlns="http://www.w3.org/2000/svg" xmlns:xlink="http://www.w3.org/1999/xlink" xmlns:sketch="http://www.bohemiancoding.com/sketch/ns">
    <!-- Generator: Sketch 3.4.4 (17249) - http://www.bohemiancoding.com/sketch -->
    <title>Butter Project Icon Butter Roll</title>
    <desc>Created with Sketch.</desc>
    <defs>
        <path id="path-1" d="M186.76798,51.93677 C194.53473,45.94092 203.55997,41.87964 214.9477,41.73633 C187.85816,-6.84473 107.38989,-12.07739 68.61202,23.80176 C66.3471,17.30884 60.1912216,21.0857773 53.8185142,21.085778 C34.7845142,23.889248 31.85909,30.34277 23.40514,58.07446 C9.95987,67.31128 0.82947,85.34985 0.82947,106.09131 C0.82947,136.23731 20.11586,191.24317 43.90688,191.24317 C65.19864,191.24317 82.87972,147.18946 86.36042,116.32471 C106.84426,114.96997 126.3126,107.3313 139.10542,100.3545 C143.21965,98.11207 146.97712,95.13819 150.53608,91.71754 C149.55125,96.29859 149.01572,101.11451 149.01572,106.09132 C149.01572,136.23732 168.30213,191.24318 192.09314,191.24318 C215.88413,191.24318 235.17053,136.23732 235.17053,106.09132 C235.17053,75.94507 215.88412,51.50684 192.09314,51.50684 C190.28864,51.50684 188.51422,51.66382 186.76798,51.93677 Z"></path>
        <path id="path-3" d="M186.76798,51.93677 C194.53473,45.94092 203.55997,41.87964 214.9477,41.73633 C187.85816,-6.84473 107.38989,-12.07739 68.61202,23.80176 C66.3471,17.30884 60.1046127,21.6134803 50.5918792,21.6134803 C31.5578792,24.4169503 31.85909,30.34277 23.40514,58.07446 C9.95987,67.31128 0.82947,85.34985 0.82947,106.09131 C0.82947,136.23731 20.11586,191.24317 43.90688,191.24317 C65.19864,191.24317 82.87972,147.18946 86.36042,116.32471 C106.84426,114.96997 126.3126,107.3313 139.10542,100.3545 C143.21965,98.11207 146.97712,95.13819 150.53608,91.71754 C149.55125,96.29859 149.01572,101.11451 149.01572,106.09132 C149.01572,136.23732 168.30213,191.24318 192.09314,191.24318 C215.88413,191.24318 235.17053,136.23732 235.17053,106.09132 C235.17053,75.94507 215.88412,51.50684 192.09314,51.50684 C190.28864,51.50684 188.51422,51.66382 186.76798,51.93677 Z"></path>
        <path id="path-5" d="M186.76798,51.93677 C194.53473,45.94092 203.55997,41.87964 214.9477,41.73633 C187.85816,-6.84473 107.38989,-12.07739 68.61202,23.80176 C66.3471,17.30884 61.7320312,20.68698 54.027983,20.68698 C34.993983,23.49045 31.85909,30.34277 23.40514,58.07446 C9.95987,67.31128 0.82947,85.34985 0.82947,106.09131 C0.82947,136.23731 20.11586,191.24317 43.90688,191.24317 C65.19864,191.24317 82.87972,147.18946 86.36042,116.32471 C106.84426,114.96997 126.3126,107.3313 139.10542,100.3545 C143.21965,98.11207 146.97712,95.13819 150.53608,91.71754 C149.55125,96.29859 149.01572,101.11451 149.01572,106.09132 C149.01572,136.23732 168.30213,191.24318 192.09314,191.24318 C215.88413,191.24318 235.17053,136.23732 235.17053,106.09132 C235.17053,75.94507 215.88412,51.50684 192.09314,51.50684 C190.28864,51.50684 188.51422,51.66382 186.76798,51.93677 Z"></path>
        <path id="path-7" d="M202.82947,114.74951 C204.10141,108.5581 204.7703,102.14673 204.7703,95.5791 C204.7703,43.23877 162.34031,0.80884 110.00001,0.80884 C57.65971,0.80884 15.22973,43.23877 15.22973,95.5791 C15.22973,102.14673 15.89868,108.5581 17.1706,114.74951 C6.27532,117.21924 0.34226,129.58594 1.00188,143.87134 C1.87763,162.83814 16.44506,178.25025 35.49503,178.25025 C39.40734,178.25025 43.16294,177.5918 46.66845,176.39576 C57.26637,186.92579 81.6314,194.29371 110.00001,194.29371 C138.36862,194.29371 162.73365,186.92579 173.33158,176.39576 C176.83707,177.5918 180.59269,178.25025 184.50498,178.25025 C203.55494,178.25025 218.99802,162.85816 218.99802,143.87134 C218.99802,131.59668 212.53976,120.8313 202.82947,114.74951 L202.82947,114.74951 Z"></path>
        <path id="path-9" d="M202.82947,114.74951 C204.10141,108.5581 204.7703,102.14673 204.7703,95.5791 C204.7703,43.23877 162.34031,0.80884 110.00001,0.80884 C57.65971,0.80884 15.22973,43.23877 15.22973,95.5791 C15.22973,102.14673 15.89868,108.5581 17.1706,114.74951 C6.27532,117.21924 0.34226,129.58594 1.00188,143.87134 C1.87763,162.83814 16.44506,178.25025 35.49503,178.25025 C39.40734,178.25025 43.16294,177.5918 46.66845,176.39576 C57.26637,186.92579 81.6314,194.29371 110.00001,194.29371 C138.36862,194.29371 162.73365,186.92579 173.33158,176.39576 C176.83707,177.5918 180.59269,178.25025 184.50498,178.25025 C203.55494,178.25025 218.99802,162.85816 218.99802,143.87134 C218.99802,131.59668 212.53976,120.8313 202.82947,114.74951 L202.82947,114.74951 Z"></path>
        <path id="path-11" d="M4.57198,0 C2.28411,0 0.4,1.62354 0.4,3.72827 L0.4,3.78833 C0.39999,16.77734 10.08974,27 22,27 C33.91025,27 43.60001,17.01782 43.60001,3.96875 L43.60001,3.72827 C43.60001,1.68359 41.71589,0.06006 39.42804,0.06006 L4.57198,0 L4.57198,0 L4.57198,0 L4.57198,0 Z"></path>
        <path id="path-13" d="M202.82947,114.74951 C204.10141,108.5581 204.7703,102.14673 204.7703,95.5791 C204.7703,43.23877 162.34031,0.80884 110.00001,0.80884 C57.65971,0.80884 15.22973,43.23877 15.22973,95.5791 C15.22973,102.14673 15.89868,108.5581 17.1706,114.74951 C6.27532,117.21924 0.34226,129.58594 1.00188,143.87134 C1.87763,162.83814 16.44506,178.25025 35.49503,178.25025 C39.40734,178.25025 43.16294,177.5918 46.66845,176.39576 C57.26637,186.92579 81.6314,194.29371 110.00001,194.29371 C138.36862,194.29371 162.73365,186.92579 173.33158,176.39576 C176.83707,177.5918 180.59269,178.25025 184.50498,178.25025 C203.55494,178.25025 218.99802,162.85816 218.99802,143.87134 C218.99802,131.59668 212.53976,120.8313 202.82947,114.74951 L202.82947,114.74951 Z"></path>
        <path id="path-15" d="M202.82947,114.74951 C204.10141,108.5581 204.7703,102.14673 204.7703,95.5791 C204.7703,43.23877 162.34031,0.80884 110.00001,0.80884 C57.65971,0.80884 15.22973,43.23877 15.22973,95.5791 C15.22973,102.14673 15.89868,108.5581 17.1706,114.74951 C6.27532,117.21924 0.34226,129.58594 1.00188,143.87134 C1.87763,162.83814 16.44506,178.25025 35.49503,178.25025 C39.40734,178.25025 43.16294,177.5918 46.66845,176.39576 C57.26637,186.92579 81.6314,194.29371 110.00001,194.29371 C138.36862,194.29371 162.73365,186.92579 173.33158,176.39576 C176.83707,177.5918 180.59269,178.25025 184.50498,178.25025 C203.55494,178.25025 218.99802,162.85816 218.99802,143.87134 C218.99802,131.59668 212.53976,120.8313 202.82947,114.74951 L202.82947,114.74951 Z"></path>
        <path id="path-17" d="M4.57198,0 C2.28411,0 0.4,1.62354 0.4,3.72827 L0.4,3.78833 C0.39999,16.77734 10.08974,27 22,27 C33.91025,27 43.60001,17.01782 43.60001,3.96875 L43.60001,3.72827 C43.60001,1.68359 41.71589,0.06006 39.42804,0.06006 L4.57198,0 L4.57198,0 L4.57198,0 L4.57198,0 Z"></path>
        <path id="path-19" d="M202.82947,114.74951 C204.10141,108.5581 204.7703,102.14673 204.7703,95.5791 C204.7703,43.23877 162.34031,0.80884 110.00001,0.80884 C57.65971,0.80884 15.22973,43.23877 15.22973,95.5791 C15.22973,102.14673 15.89868,108.5581 17.1706,114.74951 C6.27532,117.21924 0.34226,129.58594 1.00188,143.87134 C1.87763,162.83814 16.44506,178.25025 35.49503,178.25025 C39.40734,178.25025 43.16294,177.5918 46.66845,176.39576 C57.26637,186.92579 81.6314,194.29371 110.00001,194.29371 C138.36862,194.29371 162.73365,186.92579 173.33158,176.39576 C176.83707,177.5918 180.59269,178.25025 184.50498,178.25025 C203.55494,178.25025 218.99802,162.85816 218.99802,143.87134 C218.99802,131.59668 212.53976,120.8313 202.82947,114.74951 L202.82947,114.74951 Z"></path>
        <path id="path-21" d="M202.82947,114.74951 C204.10141,108.5581 204.7703,102.14673 204.7703,95.5791 C204.7703,43.23877 162.34031,0.80884 110.00001,0.80884 C57.65971,0.80884 15.22973,43.23877 15.22973,95.5791 C15.22973,102.14673 15.89868,108.5581 17.1706,114.74951 C6.27532,117.21924 0.34226,129.58594 1.00188,143.87134 C1.87763,162.83814 16.44506,178.25025 35.49503,178.25025 C39.40734,178.25025 43.16294,177.5918 46.66845,176.39576 C57.26637,186.92579 81.6314,194.29371 110.00001,194.29371 C138.36862,194.29371 162.73365,186.92579 173.33158,176.39576 C176.83707,177.5918 180.59269,178.25025 184.50498,178.25025 C203.55494,178.25025 218.99802,162.85816 218.99802,143.87134 C218.99802,131.59668 212.53976,120.8313 202.82947,114.74951 L202.82947,114.74951 Z"></path>
        <path id="path-23" d="M4.57198,0 C2.28411,0 0.4,1.62354 0.4,3.72827 L0.4,3.78833 C0.39999,16.77734 10.08974,27 22,27 C33.91025,27 43.60001,17.01782 43.60001,3.96875 L43.60001,3.72827 C43.60001,1.68359 41.71589,0.06006 39.42804,0.06006 L4.57198,0 L4.57198,0 L4.57198,0 L4.57198,0 Z"></path>
        <linearGradient x1="52.0984677%" y1="27.886311%" x2="55.9642475%" y2="50%" id="linearGradient-25">
            <stop stop-color="#FFBC00" offset="0%"></stop>
            <stop stop-color="#FCEE21" offset="100%"></stop>
        </linearGradient>
        <linearGradient x1="68.207308%" y1="82.7737073%" x2="50%" y2="15.6305374%" id="linearGradient-26">
            <stop stop-color="#FEF845" offset="0%"></stop>
            <stop stop-color="#FFBC00" offset="100%"></stop>
        </linearGradient>
    </defs>
    <g id="Page-1" stroke="none" stroke-width="1" fill="none" fill-rule="evenodd" sketch:type="MSPage">
        <g id="Butter-Project-Icon-Butter-Roll" sketch:type="MSLayerGroup">
            <g id="Butter_concept_artwork">
                <g id="Layer_1">
                    <g id="Group">
                        <g>
                            <rect id="Rectangle-path" fill="#FFFFFF" sketch:type="MSShapeGroup" x="0" y="0" width="500" height="500"></rect>
                            <g transform="translate(74.000000, 26.000000)">
                                <g>
                                    <g transform="translate(157.000000, 175.000000) scale(-1, 1) translate(-157.000000, -175.000000) translate(39.000000, 79.000000)">
                                        <g id="SVGID_34_-link" fill="#FCEE21" sketch:type="MSShapeGroup">
                                            <path d="M186.76798,51.93677 C194.53473,45.94092 203.55997,41.87964 214.9477,41.73633 C187.85816,-6.84473 107.38989,-12.07739 68.61202,23.80176 C66.3471,17.30884 62.5316413,20.5520332 55.8809837,20.5520332 C36.8469837,23.3555032 31.85909,30.34277 23.40514,58.07446 C9.95987,67.31128 0.82947,85.34985 0.82947,106.09131 C0.82947,136.23731 20.11586,191.24317 43.90688,191.24317 C65.19864,191.24317 82.87972,147.18946 86.36042,116.32471 C106.84426,114.96997 126.3126,107.3313 139.10542,100.3545 C143.21965,98.11207 146.97712,95.13819 150.53608,91.71754 C149.55125,96.29859 149.01572,101.11451 149.01572,106.09132 C149.01572,136.23732 168.30213,191.24318 192.09314,191.24318 C215.88413,191.24318 235.17053,136.23732 235.17053,106.09132 C235.17053,75.94507 215.88412,51.50684 192.09314,51.50684 C190.28864,51.50684 188.51422,51.66382 186.76798,51.93677 Z" id="SVGID_34_"></path>
                                        </g>
                                        <g id="Clipped">
                                            <mask id="mask-2" sketch:name="SVGID_34_" fill="white">
                                                <use xlink:href="#path-1"></use>
                                            </mask>
                                            <g id="SVGID_34_"></g>
                                            <path d="M225.151614,151.749481 C236.493774,165.656222 225.22922,176.69727 216.30768,176.69727 C207.38617,176.69727 200.15384,155.946107 200.15384,130.348408 C200.15384,104.750708 207.38617,84 216.30768,84 C225.22922,84 231.981189,121.162514 228.450751,140.573685 L225.151614,151.749481 Z" id="Shape" fill="#FFBC00" sketch:type="MSShapeGroup" mask="url(#mask-2)"></path>
                                        </g>
                                        <g id="Clipped">
                                            <mask id="mask-4" sketch:name="SVGID_34_" fill="white">
                                                <use xlink:href="#path-3"></use>
                                            </mask>
                                            <g id="SVGID_34_"></g>
                                            <path d="M39.32878,135.93237 C39.32878,156.57934 30.64998,173.31689 19.94415,173.31689 C9.23832,173.31689 -0.00205,156.57153 0.55954,135.93237 C1.125,115.15088 17.77371,112.45166 19.94417,98.5476 C21.59543,87.96997 39.32878,115.2854 39.32878,135.93237 L39.32878,135.93237 Z" id="Shape" fill="#FFBC00" sketch:type="MSShapeGroup" mask="url(#mask-4)"></path>
                                        </g>
                                        <g id="Clipped">
                                            <mask id="mask-6" sketch:name="SVGID_34_" fill="white">
                                                <use xlink:href="#path-5"></use>
                                            </mask>
                                            <g id="SVGID_34_"></g>
                                        </g>
                                        <g id="SVGID_34_-link" stroke="#422B22" stroke-width="7" sketch:type="MSShapeGroup">
                                            <path d="M186.76798,51.93677 C194.53473,45.94092 203.55997,41.87964 214.9477,41.73633 C187.85816,-6.84473 107.38989,-12.07739 68.61202,23.80176 C61.5296157,19.7964943 49.2504791,21.0092552 43.9068817,23.8017604 C38.5632842,26.5942657 25.4907134,34.5585926 25.4907134,54.159209 C12.0454434,63.396029 0.82947,85.34985 0.82947,106.09131 C0.82947,136.23731 20.11586,191.24317 43.90688,191.24317 C65.19864,191.24317 82.87972,147.18946 86.36042,116.32471 C106.84426,114.96997 126.3126,107.3313 139.10542,100.3545 C143.21965,98.11207 146.97712,95.13819 150.53608,91.71754 C149.55125,96.29859 149.01572,101.11451 149.01572,106.09132 C149.01572,136.23732 168.30213,191.24318 192.09314,191.24318 C215.88413,191.24318 235.17053,136.23732 235.17053,106.09132 C235.17053,75.94507 215.88412,51.50684 192.09314,51.50684 C190.28864,51.50684 188.51422,51.66382 186.76798,51.93677 Z" id="SVGID_34_"></path>
                                        </g>
                                    </g>
                                    <g transform="translate(47.000000, 131.000000)">
                                        <g>
                                            <g id="SVGID_36_-link" fill="#FFFAC0" sketch:type="MSShapeGroup">
                                                <path d="M202.82947,114.74951 C204.10141,108.5581 204.7703,102.14673 204.7703,95.5791 C204.7703,43.23877 162.34031,0.80884 110.00001,0.80884 C57.65971,0.80884 15.22973,43.23877 15.22973,95.5791 C15.22973,102.14673 15.89868,108.5581 17.1706,114.74951 C6.27532,117.21924 0.34226,129.58594 1.00188,143.87134 C1.87763,162.83814 16.44506,178.25025 35.49503,178.25025 C39.40734,178.25025 43.16294,177.5918 46.66845,176.39576 C57.26637,186.92579 81.6314,194.29371 110.00001,194.29371 C138.36862,194.29371 162.73365,186.92579 173.33158,176.39576 C176.83707,177.5918 180.59269,178.25025 184.50498,178.25025 C203.55494,178.25025 218.99802,162.85816 218.99802,143.87134 C218.99802,131.59668 212.53976,120.8313 202.82947,114.74951 L202.82947,114.74951 Z" id="SVGID_36_"></path>
                                            </g>
                                            <g id="Clipped">
                                                <mask id="mask-8" sketch:name="SVGID_36_" fill="white">
                                                    <use xlink:href="#path-7"></use>
                                                </mask>
                                                <g id="SVGID_36_"></g>
                                                <path d="M219.84619,151.5481 C219.84619,148.021 219.29736,144.62549 218.30688,141.4231 C214.07055,155.05762 201.55053,165.06006 186.60937,165.59351 C183.71948,163.96045 179.95141,163.29004 175.82568,163.29004 L175.49316,163.29004 C170.09399,163.29004 165.30151,164.43164 162.29736,167.38721 C160.48291,169.17237 157.55859,169.17237 155.74414,167.38721 C152.73975,164.43164 147.94751,163.29004 142.54834,163.29004 L142.21558,163.29004 C136.81617,163.29004 132.02369,164.43164 129.01954,167.38721 C127.20509,169.17237 124.28077,169.17237 122.46632,167.38721 C119.46217,164.43164 114.66969,163.29004 109.27052,163.29004 L108.93776,163.29004 C103.53859,163.29004 98.74611,164.43164 95.74196,167.38721 C93.92751,169.17237 91.00343,169.17237 89.18874,167.38721 C86.18459,164.43164 81.39211,163.29004 75.9927,163.29004 L75.66018,163.29004 C70.26077,163.29004 65.46853,164.43164 62.46438,167.38721 C60.64968,169.17237 57.72561,169.17237 55.91116,167.38721 C52.90677,164.43164 48.11428,163.29004 42.71536,163.29004 L42.3826,163.29004 C39.44193,163.29004 36.68143,164.11255 34.29154,165.55225 C19.70341,164.69849 7.55033,154.8147 3.38968,141.4231 C2.3992,144.62549 1.85037,148.021 1.85037,151.5481 C1.85037,167.42969 12.65823,180.78931 27.34085,184.73658 L42.99246,227.21925 C46.42312,236.53077 54.84598,242.65382 64.22439,242.65382 L70.57205,242.65382 L92.46536,242.65382 L125.74295,242.65382 L147.63626,242.65382 L161.07376,242.65382 C166.17483,242.65382 170.75589,239.32472 172.62088,234.26271 L189.07913,185.72438 C206.37598,183.87207 219.84619,169.27979 219.84619,151.5481 L219.84619,151.5481 Z" id="Shape" fill="#FFDE8D" sketch:type="MSShapeGroup" mask="url(#mask-8)"></path>
                                            </g>
                                            <g id="Clipped">
                                                <mask id="mask-10" sketch:name="SVGID_36_" fill="white">
                                                    <use xlink:href="#path-9"></use>
                                                </mask>
                                                <g id="SVGID_36_"></g>
                                                <path d="M151.0668,68 C166.0668,68 125.54629,83.41162 85.0668,85 C52.97708,86.25928 25.98123,82.35742 21.0668,72 C15.5032,60.27417 51.92972,44 85.0668,44 C118.20388,44 140.75903,68 151.0668,68 L151.0668,68 Z" id="Shape" fill="#FFD371" sketch:type="MSShapeGroup" mask="url(#mask-10)"></path>
                                                <path d="M146.936964,85.4961243 C116.474538,86.0653322 85.8639097,69.3633626 83.9338262,58.9002605 C82.2236796,47.0547883 121.289999,43.7835293 147.322511,44.4961243 C173.355023,45.2087193 192.561425,58.6785971 201.615291,58.9002602 C214.790594,59.2228271 184.918215,84.7782339 146.936964,85.4961243 Z" id="Shape-Copy-16" fill="#FFD371" sketch:type="MSShapeGroup" mask="url(#mask-10)"></path>
                                            </g>
                                            <g id="SVGID_36_-link" stroke="#422B22" stroke-width="6" sketch:type="MSShapeGroup">
                                                <path d="M202.82947,114.74951 C204.10141,108.5581 204.7703,102.14673 204.7703,95.5791 C204.7703,43.23877 162.34031,0.80884 110.00001,0.80884 C57.65971,0.80884 15.22973,43.23877 15.22973,95.5791 C15.22973,102.14673 15.89868,108.5581 17.1706,114.74951 C6.27532,117.21924 0.34226,129.58594 1.00188,143.87134 C1.87763,162.83814 16.44506,178.25025 35.49503,178.25025 C39.40734,178.25025 43.16294,177.5918 46.66845,176.39576 C57.26637,186.92579 81.6314,194.29371 110.00001,194.29371 C138.36862,194.29371 162.73365,186.92579 173.33158,176.39576 C176.83707,177.5918 180.59269,178.25025 184.50498,178.25025 C203.55494,178.25025 218.99802,162.85816 218.99802,143.87134 C218.99802,131.59668 212.53976,120.8313 202.82947,114.74951 L202.82947,114.74951 Z" id="SVGID_36_"></path>
                                            </g>
                                        </g>
                                        <g transform="translate(23.000000, 170.000000)" id="Shape" stroke="#422B22" stroke-width="6" sketch:type="MSShapeGroup">
                                            <path d="M69.66768,78.5 L46.862,78.5 L35.00305,18.11963 C35.00305,8.64307 42.68539,0.96069 52.16203,0.96069 L52.50868,0.96069 C61.98533,0.96069 69.66768,8.64306 69.66768,18.11963 L69.66768,78.5 L69.66768,78.5 Z" fill="#EF5734"></path>
                                            <path d="M104.33231,78.5 L69.66768,78.5 L69.66768,18.11963 C69.66768,8.64307 77.35002,0.96069 86.82668,0.96069 L87.17333,0.96069 C96.64997,0.96069 104.33231,8.64306 104.33231,18.11963 L104.33231,78.5 L104.33231,78.5 Z" fill="#FFFFFF"></path>
                                            <path d="M46.862,78.5 L32.86446,78.5 C27.55079,78.5 22.77869,75.24756 20.83596,70.30176 L0.33842,18.11963 C0.33842,8.64307 8.02076,0.96069 17.49742,0.96069 L17.84407,0.96069 C27.32071,0.96069 35.00307,8.64306 35.00307,18.11963 L46.862,78.5 L46.862,78.5 Z" fill="#FFFFFF"></path>
                                            <path d="M104.33231,78.5 L127.138,78.5 L138.99695,18.11963 C138.99695,8.64307 131.31461,0.96069 121.83795,0.96069 L121.4913,0.96069 C112.01465,0.96069 104.3323,8.64306 104.3323,18.11963 L104.3323,78.5 L104.33231,78.5 Z" fill="#EF5734"></path>
                                            <path d="M127.138,78.5 L141.13556,78.5 C146.44922,78.5 151.22131,75.24756 153.16406,70.30176 L173.66159,18.11963 C173.66159,8.64307 165.97925,0.96069 156.50259,0.96069 L156.15594,0.96069 C146.67929,0.96069 138.99694,8.64306 138.99694,18.11963 L127.138,78.5 L127.138,78.5 Z" fill="#FFFFFF"></path>
                                        </g>
                                        <g transform="translate(32.000000, 92.000000)">
                                            <g id="Shape" sketch:type="MSShapeGroup">
                                                <g>
                                                    <path d="M45.11031,20.92603 C46.19576,34.64624 34.79387,46.0105 21.02808,44.92872 C10.19902,44.07765 1.42551,35.33302 0.57163,24.5398 C-0.51382,10.81959 10.88805,-0.54467 24.65384,0.53711 C35.48289,1.38818 44.25642,10.13281 45.11031,20.92603 L45.11031,20.92603 Z" fill="#422B22"></path>
                                                    <path d="M36.0105,15.5603 C36.9648,21.37768 32.00659,26.33593 26.18917,25.38159 C22.66634,24.80371 19.82505,21.9624 19.24715,18.4397 C18.29285,12.62232 23.25106,7.66407 29.06848,8.61841 C32.59131,9.19629 35.43262,12.0376 36.0105,15.5603 L36.0105,15.5603 Z" fill="#FFFFFF"></path>
                                                </g>
                                                <g transform="translate(110.000000, 0.000000)">
                                                    <path d="M45.42838,20.46021 C46.51383,34.18042 35.11194,45.54468 21.34617,44.4629 C10.51713,43.61183 1.7436,34.8672 0.88972,24.07398 C-0.19573,10.35377 11.20616,-1.01049 24.97193,0.07129 C35.80096,0.92236 44.57449,9.66699 45.42838,20.46021 L45.42838,20.46021 Z" fill="#422B22"></path>
                                                    <path d="M36.64667,15.5603 C37.60095,21.37768 32.64276,26.33593 26.82532,25.38159 C23.30249,24.80371 20.46121,21.9624 19.8833,18.4397 C18.92902,12.62232 23.88721,7.66407 29.70465,8.61841 C33.22748,9.19629 36.06876,12.0376 36.64667,15.5603 L36.64667,15.5603 Z" fill="#FFFFFF"></path>
                                                </g>
                                            </g>
                                            <g transform="translate(56.000000, 37.000000)">
                                                <g id="SVGID_38_-link" fill="#422B22" sketch:type="MSShapeGroup">
                                                    <path d="M4.57198,0 C2.28411,0 0.4,1.62354 0.4,3.72827 L0.4,3.78833 C0.39999,16.77734 10.08974,27 22,27 C33.91025,27 43.60001,17.01782 43.60001,3.96875 L43.60001,3.72827 C43.60001,1.68359 41.71589,0.06006 39.42804,0.06006 L4.57198,0 L4.57198,0 L4.57198,0 L4.57198,0 Z" id="SVGID_38_"></path>
                                                </g>
                                                <g id="Clipped">
                                                    <mask id="mask-12" sketch:name="SVGID_38_" fill="white">
                                                        <use xlink:href="#path-11"></use>
                                                    </mask>
                                                    <g id="SVGID_38_"></g>
                                                    <path d="M36.71869,23.44189 C34.99521,18.08471 26.37788,14 16.0371,14 C10.41709,14 5.24668,15.20532 1.50001,17.21436 C5.77121,24.37939 13.26454,29 21.73201,29 C27.35201,28.93311 32.59735,26.92407 36.71869,23.44189 L36.71869,23.44189 Z" id="Shape" fill="#EF5734" sketch:type="MSShapeGroup" mask="url(#mask-12)"></path>
                                                </g>
                                            </g>
                                        </g>
                                    </g>
                                    <g transform="translate(160.500000, 132.000000) scale(-1, 1) translate(-160.500000, -132.000000) " sketch:type="MSShapeGroup">
                                        <path d="M259.112297,178.604934 C261.426079,173.308684 276.083092,171.492591 272.290565,133.915225 C268.498039,96.3378593 246.603441,86.1959761 233.545631,83.9862775 C227.32203,82.319284 192.515434,85.2156163 182.172363,90.5427479 C171.829292,95.8698795 172.726284,107.127983 159.124136,107.653875 C107.798786,109.638495 62.1812391,149.840826 62.9520191,169.775146 C63.7227891,189.709226 106.899938,220.923538 160.50297,202.45043 C171.850684,198.53969 178.910802,194.42011 191.257932,191.32978 C191.84188,192.175305 207.896282,198.760297 222.348564,198.947806 C232.850929,199.084068 243.091713,192.923453 243.091713,192.923453" id="Shape" fill="#FCEE21"></path>
                                        <path d="M168.002266,155.317861 C168.188882,151.216102 171.831839,152.617575 175.801878,149.159907 C179.040893,146.338918 179.795976,138.06351 187.526944,138.06351 C199.124934,138.06351 195.483375,151.719126 192.927903,159.670496 C192.927903,159.670496 167.683906,162.314691 168.002266,155.317861 Z" id="Shape" fill="#FFBC00"></path>
                                        <path d="M159.002266,168.317861 C159.188882,164.216102 162.831839,165.617575 166.801878,162.159907 C170.040893,159.338918 168.818882,151.142258 174.029825,151.142258 C185.627815,151.142258 195.970701,159.81238 190.965874,168.317862 C185.961046,176.823343 158.683906,175.314691 159.002266,168.317861 Z" id="Shape-Copy-15" fill="#FFBC00"></path>
                                        <path d="M163.42257,127.930705 C162.836445,120.791969 165.574832,111.952458 170.517767,107.544468 C175.460701,103.136479 183.93721,104.161293 187.125821,111.644853 C190.714444,120.067229 195.679084,119.979334 192.965308,127.930705 C192.965308,127.930705 164.24119,137.901111 163.42257,127.930705 Z" id="Shape-Copy-13" fill="#FFBC00"></path>
                                        <path d="M226.903987,185.851597 C225.498652,186.032197 217.536219,187.331869 210.6104,187.429726 C203.28886,187.533174 197.802704,185.223529 193.209666,185.851597 C189.656862,186.33742 168.514237,192.593282 153.447661,195.000046 C130.611083,198.648005 113.399726,198.14135 99.2179822,195.000046 C85.0362386,191.858742 75.0042486,185.851597 75.0042486,173.774227 C82.6490865,182.208622 107.876559,191.763073 113.399726,191.09629 C133.815896,188.631551 165.902769,185.593527 181.079445,179.077031 C198.192767,171.728984 193.392039,154.5294 195.485824,152.662214 C198.275667,150.1743 202.944724,155.46583 233.963675,153.55188 C264.982627,151.637931 261.19032,144.663603 262.579246,147.923365 C266.167869,156.345741 254.989787,165.571883 245.800257,175.245182 C244.044982,177.092862 236.567454,184.609742 226.903987,185.851597 Z" id="Shape-Copy-14" fill="#FFBC00"></path>
                                        <path d="M64.71912,174.02686 C66.02747,192.45215 105.527148,214.917086 154.365108,204.867217 C175.827198,200.450751 179.123434,195.255597 191.073994,191.831527 C200.164326,189.564326 209.114109,198.085483 223.25893,198.085482 C261.882141,198.08548 291.972233,139.980226 256.168522,95.8771574 C239.506999,75.3534665 195.492075,79.110756 175.827198,93.717092 C143.073664,118.045193 159.431637,164.957419 174.379475,149.805938 C181.943449,142.138914 172.917622,137.570174 194.198826,137.570174" id="Shape-Copy-8" stroke="#422B22" stroke-width="4.5"></path>
                                        <path d="M76.71912,172.02686 C78.02747,190.45215 129.699707,196.046528 173.810307,182.082996 C197.816757,174.483579 195.54977,153.049495 195.54977,140.051619 C195.54977,127.053744 188.051914,107.434139 178.500584,107.434139 C168.949253,107.434139 162.26379,138.918318 173.810307,147.435421" id="Shape-Copy-9" stroke="#422B22" stroke-width="4.5"></path>
                                        <path d="M184.683,110.331547 C178.247343,115.123097 174.568864,131.761589 179.101143,138.844223" id="Shape-Copy-11" stroke="#422B22" stroke-width="4.5"></path>
                                        <path d="M189.886841,118.162781 C185.320935,124.695963 185.791899,134.500374 188.101143,138.844223" id="Shape-Copy-12" stroke="#422B22" stroke-width="4.5"></path>
                                        <path d="M179.297244,137.880769 C174.731337,144.413951 175.63945,160.385013 183.230442,162.568847" id="Shape-Copy-17" stroke="#422B22" stroke-width="4.5" transform="translate(179.876744, 150.224808) scale(-1, 1) rotate(-28.000000) translate(-179.876744, -150.224808) "></path>
                                        <path d="M191.767412,137.973011 C187.100729,140.890068 185.057559,159.490872 190.005149,163.120973" id="Shape-Copy-18" stroke="#422B22" stroke-width="4.5" transform="translate(189.455550, 150.546992) scale(-1, 1) rotate(-28.000000) translate(-189.455550, -150.546992) "></path>
                                        <path d="M157.01792,126.086514 C153.047392,163.245881 180.43558,163.979881 194.123443,159.507739" id="Shape-Copy-10" stroke="#422B22" stroke-width="4.5"></path>
                                        <path d="M175.512219,181.479884 C202.22073,181.479884 207.54977,159.764162 207.54977,140.051619 C207.549771,120.339077 195.454202,95.5009189 180.172333,95.5009189 C164.890463,95.5009189 160.119675,113.648508 160.119675,113.648508" id="Shape-Copy-2" stroke="#422B22" stroke-width="4.5"></path>
                                        <path d="M187.512219,179.479884 C214.22073,179.479884 219.54977,157.764162 219.54977,138.051619 C219.549771,118.339077 209.015594,91.6962668 191.685118,91.6962668 C174.354642,91.6962668 168.375007,100.853411 168.375007,100.853411" id="Shape-Copy-3" stroke="#422B22" stroke-width="4.5"></path>
                                        <path d="M199.512219,177.479884 C226.22073,177.479884 231.54977,155.764162 231.54977,136.051619 C231.549771,116.339077 220.196186,87.7024008 202.768026,87.7024008 C185.339866,87.7024008 179.990989,93.203386 179.990989,93.203386" id="Shape-Copy-4" stroke="#422B22" stroke-width="4.5"></path>
                                        <path d="M210.512219,175.479884 C237.22073,175.479884 242.54977,153.764162 242.54977,134.051619 C242.549771,114.339077 231.114428,84.5207046 212.131703,84.5207046 C193.148978,84.5207046 189.893321,88.6387684 189.893321,88.6387684" id="Shape-Copy-5" stroke="#422B22" stroke-width="4.5"></path>
                                        <path d="M221.512219,173.479884 C248.22073,173.479884 254.548735,151.443757 254.548735,131.731215 C254.548736,112.018672 242.114428,82.5207046 223.131703,82.5207046 C204.148978,82.5207046 200.893321,86.6387684 200.893321,86.6387684" id="Shape-Copy-6" stroke="#422B22" stroke-width="4.5"></path>
                                        <path d="M231.512219,172.479884 C258.22073,172.479884 265.518608,149.967339 265.518608,130.254796 C265.518609,110.542254 254.042177,84.8653884 235.059451,84.8653884" id="Shape-Copy-7" stroke="#422B22" stroke-width="4.5"></path>
                                    </g>
                                </g>
                                <g transform="translate(59.000000, 95.000000)" fill="#FFFFFF" sketch:type="MSShapeGroup">
                                    <path d="M107.60526,13.31519 C107.45755,8.59913 112.94193,4.60059 119.85492,4.38404 C126.76791,4.16773 132.49173,7.81519 132.63944,12.53101 C132.78711,17.24707 126.99222,11.32935 120.07921,11.5459 C113.16621,11.76245 107.75294,18.03101 107.60526,13.31519 L107.60526,13.31519 Z" id="Shape" transform="translate(120.122273, 9.721512) rotate(21.000000) translate(-120.122273, -9.721512) "></path>
                                    <path d="M5.81160594,24.3493496 C6.71433287,24.3493496 6.00763065,21.2533235 6.00763065,17.6103503 C6.00763065,13.9673772 6.71433287,11.1569769 5.81160594,11.1569769 C4.90887902,11.1569769 2.73856728,13.9673772 2.73856728,17.6103503 C2.73856728,21.2533235 4.90887902,24.3493496 5.81160594,24.3493496 Z" id="Oval" transform="translate(4.503992, 17.754114) rotate(18.522697) translate(-4.503992, -17.754114) "></path>
                                    <path d="M17.8116059,23.3493496 C18.7143329,23.3493496 18.0076307,20.2533235 18.0076307,16.6103503 C18.0076307,12.9673772 18.7143329,10.1569769 17.8116059,10.1569769 C16.908879,10.1569769 14.7385673,12.9673772 14.7385673,16.6103503 C14.7385673,20.2533235 16.908879,23.3493496 17.8116059,23.3493496 Z" id="Oval-Copy" transform="translate(16.503992, 16.754114) rotate(18.522697) translate(-16.503992, -16.754114) "></path>
                                    <path d="M30.8116059,22.3493496 C31.7143329,22.3493496 31.0076307,19.2533235 31.0076307,15.6103503 C31.0076307,11.9673772 31.7143329,9.1569769 30.8116059,9.1569769 C29.908879,9.1569769 27.7385673,11.9673772 27.7385673,15.6103503 C27.7385673,19.2533235 29.908879,22.3493496 30.8116059,22.3493496 Z" id="Oval-Copy-2" transform="translate(29.503992, 15.754114) rotate(20.522697) translate(-29.503992, -15.754114) "></path>
                                    <path d="M41.8116059,24.3493496 C42.7143329,24.3493496 42.0076307,21.2533235 42.0076307,17.6103503 C42.0076307,13.9673772 42.7143329,11.1569769 41.8116059,11.1569769 C40.908879,11.1569769 38.7385673,13.9673772 38.7385673,17.6103503 C38.7385673,21.2533235 40.908879,24.3493496 41.8116059,24.3493496 Z" id="Oval-Copy-3" transform="translate(40.503992, 17.754114) rotate(21.522697) translate(-40.503992, -17.754114) "></path>
                                    <path d="M54.8116059,25.3493496 C55.7143329,25.3493496 55.0076307,22.2533235 55.0076307,18.6103503 C55.0076307,14.9673772 55.7143329,12.1569769 54.8116059,12.1569769 C53.908879,12.1569769 51.7385673,14.9673772 51.7385673,18.6103503 C51.7385673,22.2533235 53.908879,25.3493496 54.8116059,25.3493496 Z" id="Oval-Copy-4" transform="translate(53.503992, 18.754114) rotate(24.522697) translate(-53.503992, -18.754114) "></path>
                                    <path d="M66.8116059,28.3493496 C67.7143329,28.3493496 67.0076307,25.2533235 67.0076307,21.6103503 C67.0076307,17.9673772 67.7143329,15.1569769 66.8116059,15.1569769 C65.908879,15.1569769 63.7385673,17.9673772 63.7385673,21.6103503 C63.7385673,25.2533235 65.908879,28.3493496 66.8116059,28.3493496 Z" id="Oval-Copy-5" transform="translate(65.503992, 21.754114) rotate(27.522697) translate(-65.503992, -21.754114) "></path>
                                    <path d="M177.71506,31.5 C177.71506,38.40356 173.64859,44 168.63236,44 C163.61616,44 171.76182,38.40356 171.76182,31.5 C171.76182,24.59644 163.61616,19 168.63236,19 C173.64859,19 177.71506,24.59644 177.71506,31.5 L177.71506,31.5 Z" id="Shape"></path>
                                </g>
                            </g>
                        </g>
                    </g>
                </g>
            </g>
            <g id="Butter_concept_artwork-Copy" transform="translate(530.000000, 0.000000)">
                <g id="Layer_1">
                    <g id="Group">
                        <g>
                            <rect id="Rectangle-path" fill="#FFFFFF" sketch:type="MSShapeGroup" x="0" y="0" width="500" height="500"></rect>
                            <g transform="translate(97.000000, 25.000000)">
                                <g>
                                    <g transform="translate(24.000000, 132.000000)">
                                        <g>
                                            <g id="SVGID_36_-link" fill="#FFFAC0" sketch:type="MSShapeGroup">
                                                <path d="M202.82947,114.74951 C204.10141,108.5581 204.7703,102.14673 204.7703,95.5791 C204.7703,43.23877 162.34031,0.80884 110.00001,0.80884 C57.65971,0.80884 15.22973,43.23877 15.22973,95.5791 C15.22973,102.14673 15.89868,108.5581 17.1706,114.74951 C6.27532,117.21924 0.34226,129.58594 1.00188,143.87134 C1.87763,162.83814 16.44506,178.25025 35.49503,178.25025 C39.40734,178.25025 43.16294,177.5918 46.66845,176.39576 C57.26637,186.92579 81.6314,194.29371 110.00001,194.29371 C138.36862,194.29371 162.73365,186.92579 173.33158,176.39576 C176.83707,177.5918 180.59269,178.25025 184.50498,178.25025 C203.55494,178.25025 218.99802,162.85816 218.99802,143.87134 C218.99802,131.59668 212.53976,120.8313 202.82947,114.74951 L202.82947,114.74951 Z" id="SVGID_36_"></path>
                                            </g>
                                            <g id="Clipped">
                                                <mask id="mask-14" sketch:name="SVGID_36_" fill="white">
                                                    <use xlink:href="#path-13"></use>
                                                </mask>
                                                <g id="SVGID_36_"></g>
                                                <path d="M219.84619,151.5481 C219.84619,148.021 219.29736,144.62549 218.30688,141.4231 C214.07055,155.05762 201.55053,165.06006 186.60937,165.59351 C183.71948,163.96045 179.95141,163.29004 175.82568,163.29004 L175.49316,163.29004 C170.09399,163.29004 165.30151,164.43164 162.29736,167.38721 C160.48291,169.17237 157.55859,169.17237 155.74414,167.38721 C152.73975,164.43164 147.94751,163.29004 142.54834,163.29004 L142.21558,163.29004 C136.81617,163.29004 132.02369,164.43164 129.01954,167.38721 C127.20509,169.17237 124.28077,169.17237 122.46632,167.38721 C119.46217,164.43164 114.66969,163.29004 109.27052,163.29004 L108.93776,163.29004 C103.53859,163.29004 98.74611,164.43164 95.74196,167.38721 C93.92751,169.17237 91.00343,169.17237 89.18874,167.38721 C86.18459,164.43164 81.39211,163.29004 75.9927,163.29004 L75.66018,163.29004 C70.26077,163.29004 65.46853,164.43164 62.46438,167.38721 C60.64968,169.17237 57.72561,169.17237 55.91116,167.38721 C52.90677,164.43164 48.11428,163.29004 42.71536,163.29004 L42.3826,163.29004 C39.44193,163.29004 36.68143,164.11255 34.29154,165.55225 C19.70341,164.69849 7.55033,154.8147 3.38968,141.4231 C2.3992,144.62549 1.85037,148.021 1.85037,151.5481 C1.85037,167.42969 12.65823,180.78931 27.34085,184.73658 L42.99246,227.21925 C46.42312,236.53077 54.84598,242.65382 64.22439,242.65382 L70.57205,242.65382 L92.46536,242.65382 L125.74295,242.65382 L147.63626,242.65382 L161.07376,242.65382 C166.17483,242.65382 170.75589,239.32472 172.62088,234.26271 L189.07913,185.72438 C206.37598,183.87207 219.84619,169.27979 219.84619,151.5481 L219.84619,151.5481 Z" id="Shape" fill="#FFDE8D" sketch:type="MSShapeGroup" mask="url(#mask-14)"></path>
                                            </g>
                                            <g id="Clipped">
                                                <mask id="mask-16" sketch:name="SVGID_36_" fill="white">
                                                    <use xlink:href="#path-15"></use>
                                                </mask>
                                                <g id="SVGID_36_"></g>
                                            </g>
                                            <g id="SVGID_36_-link" stroke="#422B22" stroke-width="6" sketch:type="MSShapeGroup">
                                                <path d="M202.82947,114.74951 C204.10141,108.5581 204.7703,102.14673 204.7703,95.5791 C204.7703,43.23877 162.34031,0.80884 110.00001,0.80884 C57.65971,0.80884 15.22973,43.23877 15.22973,95.5791 C15.22973,102.14673 15.89868,108.5581 17.1706,114.74951 C6.27532,117.21924 0.34226,129.58594 1.00188,143.87134 C1.87763,162.83814 16.44506,178.25025 35.49503,178.25025 C39.40734,178.25025 43.16294,177.5918 46.66845,176.39576 C57.26637,186.92579 81.6314,194.29371 110.00001,194.29371 C138.36862,194.29371 162.73365,186.92579 173.33158,176.39576 C176.83707,177.5918 180.59269,178.25025 184.50498,178.25025 C203.55494,178.25025 218.99802,162.85816 218.99802,143.87134 C218.99802,131.59668 212.53976,120.8313 202.82947,114.74951 L202.82947,114.74951 Z" id="SVGID_36_"></path>
                                            </g>
                                        </g>
                                        <g transform="translate(23.000000, 170.000000)" id="Shape" stroke="#422B22" stroke-width="6" sketch:type="MSShapeGroup">
                                            <path d="M69.66768,78.5 L46.862,78.5 L35.00305,18.11963 C35.00305,8.64307 42.68539,0.96069 52.16203,0.96069 L52.50868,0.96069 C61.98533,0.96069 69.66768,8.64306 69.66768,18.11963 L69.66768,78.5 L69.66768,78.5 Z" fill="#EF5734"></path>
                                            <path d="M104.33231,78.5 L69.66768,78.5 L69.66768,18.11963 C69.66768,8.64307 77.35002,0.96069 86.82668,0.96069 L87.17333,0.96069 C96.64997,0.96069 104.33231,8.64306 104.33231,18.11963 L104.33231,78.5 L104.33231,78.5 Z" fill="#FFFFFF"></path>
                                            <path d="M46.862,78.5 L32.86446,78.5 C27.55079,78.5 22.77869,75.24756 20.83596,70.30176 L0.33842,18.11963 C0.33842,8.64307 8.02076,0.96069 17.49742,0.96069 L17.84407,0.96069 C27.32071,0.96069 35.00307,8.64306 35.00307,18.11963 L46.862,78.5 L46.862,78.5 Z" fill="#FFFFFF"></path>
                                            <path d="M104.33231,78.5 L127.138,78.5 L138.99695,18.11963 C138.99695,8.64307 131.31461,0.96069 121.83795,0.96069 L121.4913,0.96069 C112.01465,0.96069 104.3323,8.64306 104.3323,18.11963 L104.3323,78.5 L104.33231,78.5 Z" fill="#EF5734"></path>
                                            <path d="M127.138,78.5 L141.13556,78.5 C146.44922,78.5 151.22131,75.24756 153.16406,70.30176 L173.66159,18.11963 C173.66159,8.64307 165.97925,0.96069 156.50259,0.96069 L156.15594,0.96069 C146.67929,0.96069 138.99694,8.64306 138.99694,18.11963 L127.138,78.5 L127.138,78.5 Z" fill="#FFFFFF"></path>
                                        </g>
                                        <g transform="translate(32.000000, 92.000000)">
                                            <g id="Shape" sketch:type="MSShapeGroup">
                                                <g>
                                                    <path d="M45.11031,20.92603 C46.19576,34.64624 34.79387,46.0105 21.02808,44.92872 C10.19902,44.07765 1.42551,35.33302 0.57163,24.5398 C-0.51382,10.81959 10.88805,-0.54467 24.65384,0.53711 C35.48289,1.38818 44.25642,10.13281 45.11031,20.92603 L45.11031,20.92603 Z" fill="#422B22"></path>
                                                    <path d="M36.0105,15.5603 C36.9648,21.37768 32.00659,26.33593 26.18917,25.38159 C22.66634,24.80371 19.82505,21.9624 19.24715,18.4397 C18.29285,12.62232 23.25106,7.66407 29.06848,8.61841 C32.59131,9.19629 35.43262,12.0376 36.0105,15.5603 L36.0105,15.5603 Z" fill="#FFFFFF"></path>
                                                </g>
                                                <g transform="translate(110.000000, 0.000000)">
                                                    <path d="M45.42838,20.46021 C46.51383,34.18042 35.11194,45.54468 21.34617,44.4629 C10.51713,43.61183 1.7436,34.8672 0.88972,24.07398 C-0.19573,10.35377 11.20616,-1.01049 24.97193,0.07129 C35.80096,0.92236 44.57449,9.66699 45.42838,20.46021 L45.42838,20.46021 Z" fill="#422B22"></path>
                                                    <path d="M36.64667,15.5603 C37.60095,21.37768 32.64276,26.33593 26.82532,25.38159 C23.30249,24.80371 20.46121,21.9624 19.8833,18.4397 C18.92902,12.62232 23.88721,7.66407 29.70465,8.61841 C33.22748,9.19629 36.06876,12.0376 36.64667,15.5603 L36.64667,15.5603 Z" fill="#FFFFFF"></path>
                                                </g>
                                            </g>
                                            <g transform="translate(56.000000, 37.000000)">
                                                <g id="SVGID_38_-link" fill="#422B22" sketch:type="MSShapeGroup">
                                                    <path d="M4.57198,0 C2.28411,0 0.4,1.62354 0.4,3.72827 L0.4,3.78833 C0.39999,16.77734 10.08974,27 22,27 C33.91025,27 43.60001,17.01782 43.60001,3.96875 L43.60001,3.72827 C43.60001,1.68359 41.71589,0.06006 39.42804,0.06006 L4.57198,0 L4.57198,0 L4.57198,0 L4.57198,0 Z" id="SVGID_38_"></path>
                                                </g>
                                                <g id="Clipped">
                                                    <mask id="mask-18" sketch:name="SVGID_38_" fill="white">
                                                        <use xlink:href="#path-17"></use>
                                                    </mask>
                                                    <g id="SVGID_38_"></g>
                                                    <path d="M36.71869,23.44189 C34.99521,18.08471 26.37788,14 16.0371,14 C10.41709,14 5.24668,15.20532 1.50001,17.21436 C5.77121,24.37939 13.26454,29 21.73201,29 C27.35201,28.93311 32.59735,26.92407 36.71869,23.44189 L36.71869,23.44189 Z" id="Shape" fill="#EF5734" sketch:type="MSShapeGroup" mask="url(#mask-18)"></path>
                                                </g>
                                            </g>
                                        </g>
                                    </g>
                                    <g transform="translate(160.500000, 132.000000) scale(-1, 1) translate(-160.500000, -132.000000) " sketch:type="MSShapeGroup">
                                        <path d="M237.935675,173.120071 C240.249456,167.823821 270.262236,168.601993 266.469709,131.024627 C262.677183,93.447261 246.603441,86.1959761 233.545631,83.9862775 C227.32203,82.319284 192.515434,85.2156163 182.172363,90.5427479 C171.829292,95.8698795 165.448876,99.2108334 162.38485,107.09072 C156.678828,121.765141 156.899931,123.858234 155.458283,133.915225 C154.016634,143.972217 158.677208,145.239387 165.328206,158.064361 C168.396647,163.981168 192.723482,156.536536 192.723482,160.807265 C192.723482,165.077994 177.481527,183.808513 184.595583,179.218757" id="Shape" fill="#FCEE21"></path>
                                        <path d="M168.002266,155.317861 C168.188882,151.216102 171.831839,152.617575 175.801878,149.159907 C179.040893,146.338918 182.050051,138.220222 187.260994,138.220222 C198.858984,138.220222 195.483375,151.719126 192.927903,159.670496 C192.927903,159.670496 167.683906,162.314691 168.002266,155.317861 Z" id="Shape" fill="#FFBC00"></path>
                                        <path d="M162.677969,128.003765 C162.091844,120.865029 164.83023,112.025518 169.773165,107.617528 C174.7161,103.209539 183.192608,104.234352 186.381219,111.717913 C189.969842,120.140288 194.934483,120.052394 192.220706,128.003764 C192.220706,128.003764 163.496588,137.974171 162.677969,128.003765 Z" id="Shape-Copy-13" fill="#FFBC00"></path>
                                        <path d="M181.788516,179.903663 C195.797238,165.18896 191.934855,147.448924 195.904894,143.991257 C197.548097,142.560125 207.559706,145.765212 232.733804,142.220953 C257.907903,138.676694 264.962108,131.675715 265.375398,133.015289 C267.382445,139.520621 256.105693,157.23759 253.550221,165.188961 C253.550221,165.188961 175.957919,186.028097 181.788516,179.903663 Z" id="Shape-Copy-19" fill="#FFBC00"></path>
                                        <path d="M254.723418,96.2146433 C238.061894,75.6909524 195.492075,79.110756 175.827198,93.717092 C143.073664,118.045193 159.431637,164.957419 174.379475,149.805938 C181.943449,142.138914 172.917622,137.570174 194.198826,137.570174" id="Shape-Copy-8" stroke="#422B22" stroke-width="4.5"></path>
                                        <path d="M173.810307,182.082996 C197.816757,174.483579 195.54977,153.049495 195.54977,140.051619 C195.54977,127.053744 188.051914,107.434139 178.500584,107.434139 C168.949253,107.434139 162.26379,138.918318 173.810307,147.435421" id="Shape-Copy-9" stroke="#422B22" stroke-width="4.5"></path>
                                        <path d="M184.683,110.331547 C178.247343,115.123097 174.568864,131.761589 179.101143,138.844223" id="Shape-Copy-11" stroke="#422B22" stroke-width="4.5"></path>
                                        <path d="M189.886841,118.162781 C185.320935,124.695963 185.791899,134.500374 188.101143,138.844223" id="Shape-Copy-12" stroke="#422B22" stroke-width="4.5"></path>
                                        <path d="M157.01792,126.086514 C153.047392,163.245881 180.43558,163.979881 194.123443,159.507739" id="Shape-Copy-10" stroke="#422B22" stroke-width="4.5"></path>
                                        <path d="M175.512219,181.479884 C202.22073,181.479884 207.54977,159.764162 207.54977,140.051619 C207.549771,120.339077 195.454202,95.5009189 180.172333,95.5009189 C164.890463,95.5009189 160.119675,113.648508 160.119675,113.648508" id="Shape-Copy-2" stroke="#422B22" stroke-width="4.5"></path>
                                        <path d="M187.512219,179.479884 C214.22073,179.479884 219.54977,157.764162 219.54977,138.051619 C219.549771,118.339077 209.015594,91.6962668 191.685118,91.6962668 C174.354642,91.6962668 168.375007,100.853411 168.375007,100.853411" id="Shape-Copy-3" stroke="#422B22" stroke-width="4.5"></path>
                                        <path d="M199.512219,177.479884 C226.22073,177.479884 231.54977,155.764162 231.54977,136.051619 C231.549771,116.339077 220.196186,87.7024008 202.768026,87.7024008 C185.339866,87.7024008 179.990989,93.203386 179.990989,93.203386" id="Shape-Copy-4" stroke="#422B22" stroke-width="4.5"></path>
                                        <path d="M210.512219,175.479884 C237.22073,175.479884 242.54977,153.764162 242.54977,134.051619 C242.549771,114.339077 231.114428,84.5207046 212.131703,84.5207046 C193.148978,84.5207046 189.893321,88.6387684 189.893321,88.6387684" id="Shape-Copy-5" stroke="#422B22" stroke-width="4.5"></path>
                                        <path d="M221.512219,173.479884 C248.22073,173.479884 254.548735,151.443757 254.548735,131.731215 C254.548736,112.018672 242.114428,82.5207046 223.131703,82.5207046 C204.148978,82.5207046 200.893321,86.6387684 200.893321,86.6387684" id="Shape-Copy-6" stroke="#422B22" stroke-width="4.5"></path>
                                        <path d="M231.512219,172.479884 C258.22073,172.479884 265.518608,149.967339 265.518608,130.254796 C265.518609,110.542254 254.042177,84.8653884 235.059451,84.8653884" id="Shape-Copy-7" stroke="#422B22" stroke-width="4.5"></path>
                                        <path d="M187.664185,138.129566 C183.098279,144.662748 184.006391,160.63381 191.597383,162.817644" id="Shape-Copy-17" stroke="#422B22" stroke-width="4.5" transform="translate(188.243685, 150.473605) scale(-1, 1) rotate(-16.000000) translate(-188.243685, -150.473605) "></path>
                                        <path d="M183.009708,138.167004 C178.343025,141.084062 177.061788,158.286502 183.009708,162.315282" id="Shape-Copy-18" stroke="#422B22" stroke-width="4.5" transform="translate(181.012273, 150.241143) scale(-1, 1) rotate(-28.000000) translate(-181.012273, -150.241143) "></path>
                                    </g>
                                </g>
                                <g transform="translate(127.000000, 100.000000)"></g>
                                <g transform="translate(58.000000, 104.000000)" fill="#FFFFFF" sketch:type="MSShapeGroup">
                                    <path d="M5.81160594,16.3493496 C6.71433287,16.3493496 6.00763065,13.2533235 6.00763065,9.61035034 C6.00763065,5.9673772 6.71433287,3.1569769 5.81160594,3.1569769 C4.90887902,3.1569769 2.73856728,5.9673772 2.73856728,9.61035034 C2.73856728,13.2533235 4.90887902,16.3493496 5.81160594,16.3493496 Z" id="Oval" transform="translate(4.503992, 9.754114) rotate(18.522697) translate(-4.503992, -9.754114) "></path>
                                    <path d="M17.8116059,15.3493496 C18.7143329,15.3493496 18.0076307,12.2533235 18.0076307,8.61035034 C18.0076307,4.9673772 18.7143329,2.1569769 17.8116059,2.1569769 C16.908879,2.1569769 14.7385673,4.9673772 14.7385673,8.61035034 C14.7385673,12.2533235 16.908879,15.3493496 17.8116059,15.3493496 Z" id="Oval-Copy" transform="translate(16.503992, 8.754114) rotate(18.522697) translate(-16.503992, -8.754114) "></path>
                                    <path d="M30.8116059,14.3493496 C31.7143329,14.3493496 31.0076307,11.2533235 31.0076307,7.61035034 C31.0076307,3.9673772 31.7143329,1.1569769 30.8116059,1.1569769 C29.908879,1.1569769 27.7385673,3.9673772 27.7385673,7.61035034 C27.7385673,11.2533235 29.908879,14.3493496 30.8116059,14.3493496 Z" id="Oval-Copy-2" transform="translate(29.503992, 7.754114) rotate(20.522697) translate(-29.503992, -7.754114) "></path>
                                    <path d="M41.8116059,16.3493496 C42.7143329,16.3493496 42.0076307,13.2533235 42.0076307,9.61035034 C42.0076307,5.9673772 42.7143329,3.1569769 41.8116059,3.1569769 C40.908879,3.1569769 38.7385673,5.9673772 38.7385673,9.61035034 C38.7385673,13.2533235 40.908879,16.3493496 41.8116059,16.3493496 Z" id="Oval-Copy-3" transform="translate(40.503992, 9.754114) rotate(21.522697) translate(-40.503992, -9.754114) "></path>
                                    <path d="M54.8116059,17.3493496 C55.7143329,17.3493496 55.0076307,14.2533235 55.0076307,10.6103503 C55.0076307,6.9673772 55.7143329,4.1569769 54.8116059,4.1569769 C53.908879,4.1569769 51.7385673,6.9673772 51.7385673,10.6103503 C51.7385673,14.2533235 53.908879,17.3493496 54.8116059,17.3493496 Z" id="Oval-Copy-4" transform="translate(53.503992, 10.754114) rotate(24.522697) translate(-53.503992, -10.754114) "></path>
                                    <path d="M66.8116059,20.3493496 C67.7143329,20.3493496 67.0076307,17.2533235 67.0076307,13.6103503 C67.0076307,9.9673772 67.7143329,7.1569769 66.8116059,7.1569769 C65.908879,7.1569769 63.7385673,9.9673772 63.7385673,13.6103503 C63.7385673,17.2533235 65.908879,20.3493496 66.8116059,20.3493496 Z" id="Oval-Copy-5" transform="translate(65.503992, 13.754114) rotate(27.522697) translate(-65.503992, -13.754114) "></path>
                                </g>
                            </g>
                        </g>
                    </g>
                </g>
            </g>
            <g id="Butter_concept_artwork-Copy-2" transform="translate(1080.000000, 0.000000)">
                <g id="Layer_1">
                    <g id="Group">
                        <g>
                            <rect id="Rectangle-path" fill="#FFFFFF" sketch:type="MSShapeGroup" x="0" y="0" width="500" height="500"></rect>
                            <g transform="translate(52.000000, 2.000000)">
                                <g>
                                    <g transform="translate(69.000000, 155.000000)">
                                        <g>
                                            <g id="SVGID_36_-link" fill="#FFFAC0" sketch:type="MSShapeGroup">
                                                <path d="M202.82947,114.74951 C204.10141,108.5581 204.7703,102.14673 204.7703,95.5791 C204.7703,43.23877 162.34031,0.80884 110.00001,0.80884 C57.65971,0.80884 15.22973,43.23877 15.22973,95.5791 C15.22973,102.14673 15.89868,108.5581 17.1706,114.74951 C6.27532,117.21924 0.34226,129.58594 1.00188,143.87134 C1.87763,162.83814 16.44506,178.25025 35.49503,178.25025 C39.40734,178.25025 43.16294,177.5918 46.66845,176.39576 C57.26637,186.92579 81.6314,194.29371 110.00001,194.29371 C138.36862,194.29371 162.73365,186.92579 173.33158,176.39576 C176.83707,177.5918 180.59269,178.25025 184.50498,178.25025 C203.55494,178.25025 218.99802,162.85816 218.99802,143.87134 C218.99802,131.59668 212.53976,120.8313 202.82947,114.74951 L202.82947,114.74951 Z" id="SVGID_36_"></path>
                                            </g>
                                            <g id="Clipped">
                                                <mask id="mask-20" sketch:name="SVGID_36_" fill="white">
                                                    <use xlink:href="#path-19"></use>
                                                </mask>
                                                <g id="SVGID_36_"></g>
                                                <path d="M219.84619,151.5481 C219.84619,148.021 219.29736,144.62549 218.30688,141.4231 C214.07055,155.05762 201.55053,165.06006 186.60937,165.59351 C183.71948,163.96045 179.95141,163.29004 175.82568,163.29004 L175.49316,163.29004 C170.09399,163.29004 165.30151,164.43164 162.29736,167.38721 C160.48291,169.17237 157.55859,169.17237 155.74414,167.38721 C152.73975,164.43164 147.94751,163.29004 142.54834,163.29004 L142.21558,163.29004 C136.81617,163.29004 132.02369,164.43164 129.01954,167.38721 C127.20509,169.17237 124.28077,169.17237 122.46632,167.38721 C119.46217,164.43164 114.66969,163.29004 109.27052,163.29004 L108.93776,163.29004 C103.53859,163.29004 98.74611,164.43164 95.74196,167.38721 C93.92751,169.17237 91.00343,169.17237 89.18874,167.38721 C86.18459,164.43164 81.39211,163.29004 75.9927,163.29004 L75.66018,163.29004 C70.26077,163.29004 65.46853,164.43164 62.46438,167.38721 C60.64968,169.17237 57.72561,169.17237 55.91116,167.38721 C52.90677,164.43164 48.11428,163.29004 42.71536,163.29004 L42.3826,163.29004 C39.44193,163.29004 36.68143,164.11255 34.29154,165.55225 C19.70341,164.69849 7.55033,154.8147 3.38968,141.4231 C2.3992,144.62549 1.85037,148.021 1.85037,151.5481 C1.85037,167.42969 12.65823,180.78931 27.34085,184.73658 L42.99246,227.21925 C46.42312,236.53077 54.84598,242.65382 64.22439,242.65382 L70.57205,242.65382 L92.46536,242.65382 L125.74295,242.65382 L147.63626,242.65382 L161.07376,242.65382 C166.17483,242.65382 170.75589,239.32472 172.62088,234.26271 L189.07913,185.72438 C206.37598,183.87207 219.84619,169.27979 219.84619,151.5481 L219.84619,151.5481 Z" id="Shape" fill="#FFDE8D" sketch:type="MSShapeGroup" mask="url(#mask-20)"></path>
                                            </g>
                                            <g id="Clipped">
                                                <mask id="mask-22" sketch:name="SVGID_36_" fill="white">
                                                    <use xlink:href="#path-21"></use>
                                                </mask>
                                                <g id="SVGID_36_"></g>
                                                <path d="M74.2902241,83.3538133 C42.5321523,80.5249813 31.7172976,55.2180635 38.1195205,44 C44.7185571,32.4370768 51.92972,44 85.0668,44 C118.20388,44 130.84289,26.6829645 141.15066,26.6829645 C141.15066,26.6829645 141.15066,89.3093683 74.2902241,83.3538133 Z" id="Shape" fill="#FFD371" sketch:type="MSShapeGroup" mask="url(#mask-22)"></path>
                                            </g>
                                            <g id="SVGID_36_-link" stroke="#422B22" stroke-width="6" sketch:type="MSShapeGroup">
                                                <path d="M204.7703,95.5791 C204.7703,43.23877 162.34031,0.80884 110.00001,0.80884 C57.65971,0.80884 15.22973,43.23877 15.22973,95.5791 C15.22973,102.14673 15.89868,108.5581 17.1706,114.74951 C6.27532,117.21924 0.34226,129.58594 1.00188,143.87134 C1.87763,162.83814 16.44506,178.25025 35.49503,178.25025 C39.40734,178.25025 43.16294,177.5918 46.66845,176.39576 C57.26637,186.92579 81.6314,194.29371 110.00001,194.29371 C138.36862,194.29371 162.73365,186.92579 173.33158,176.39576 C176.83707,177.5918 180.59269,178.25025 184.50498,178.25025 C203.55494,178.25025 218.99802,162.85816 218.99802,143.87134 C218.99802,131.59668 212.53976,120.8313 202.82947,114.74951 C204.10141,108.5581 204.7703,102.14673 204.7703,95.5791 Z" id="SVGID_36_"></path>
                                            </g>
                                        </g>
                                        <g transform="translate(23.000000, 170.000000)" id="Shape" stroke="#422B22" stroke-width="6" sketch:type="MSShapeGroup">
                                            <path d="M69.66768,78.5 L46.862,78.5 L35.00305,18.11963 C35.00305,8.64307 42.68539,0.96069 52.16203,0.96069 L52.50868,0.96069 C61.98533,0.96069 69.66768,8.64306 69.66768,18.11963 L69.66768,78.5 L69.66768,78.5 Z" fill="#EF5734"></path>
                                            <path d="M104.33231,78.5 L69.66768,78.5 L69.66768,18.11963 C69.66768,8.64307 77.35002,0.96069 86.82668,0.96069 L87.17333,0.96069 C96.64997,0.96069 104.33231,8.64306 104.33231,18.11963 L104.33231,78.5 L104.33231,78.5 Z" fill="#FFFFFF"></path>
                                            <path d="M46.862,78.5 L32.86446,78.5 C27.55079,78.5 22.77869,75.24756 20.83596,70.30176 L0.33842,18.11963 C0.33842,8.64307 8.02076,0.96069 17.49742,0.96069 L17.84407,0.96069 C27.32071,0.96069 35.00307,8.64306 35.00307,18.11963 L46.862,78.5 L46.862,78.5 Z" fill="#FFFFFF"></path>
                                            <path d="M104.33231,78.5 L127.138,78.5 L138.99695,18.11963 C138.99695,8.64307 131.31461,0.96069 121.83795,0.96069 L121.4913,0.96069 C112.01465,0.96069 104.3323,8.64306 104.3323,18.11963 L104.3323,78.5 L104.33231,78.5 Z" fill="#EF5734"></path>
                                            <path d="M127.138,78.5 L141.13556,78.5 C146.44922,78.5 151.22131,75.24756 153.16406,70.30176 L173.66159,18.11963 C173.66159,8.64307 165.97925,0.96069 156.50259,0.96069 L156.15594,0.96069 C146.67929,0.96069 138.99694,8.64306 138.99694,18.11963 L127.138,78.5 L127.138,78.5 Z" fill="#FFFFFF"></path>
                                        </g>
                                        <g transform="translate(32.000000, 92.000000)">
                                            <g id="Shape" sketch:type="MSShapeGroup">
                                                <g>
                                                    <path d="M45.11031,20.92603 C46.19576,34.64624 34.79387,46.0105 21.02808,44.92872 C10.19902,44.07765 1.42551,35.33302 0.57163,24.5398 C-0.51382,10.81959 10.88805,-0.54467 24.65384,0.53711 C35.48289,1.38818 44.25642,10.13281 45.11031,20.92603 L45.11031,20.92603 Z" fill="#422B22"></path>
                                                    <path d="M36.0105,15.5603 C36.9648,21.37768 32.00659,26.33593 26.18917,25.38159 C22.66634,24.80371 19.82505,21.9624 19.24715,18.4397 C18.29285,12.62232 23.25106,7.66407 29.06848,8.61841 C32.59131,9.19629 35.43262,12.0376 36.0105,15.5603 L36.0105,15.5603 Z" fill="#FFFFFF"></path>
                                                </g>
                                                <g transform="translate(110.000000, 0.000000)">
                                                    <path d="M45.42838,20.46021 C46.51383,34.18042 35.11194,45.54468 21.34617,44.4629 C10.51713,43.61183 1.7436,34.8672 0.88972,24.07398 C-0.19573,10.35377 11.20616,-1.01049 24.97193,0.07129 C35.80096,0.92236 44.57449,9.66699 45.42838,20.46021 L45.42838,20.46021 Z" fill="#422B22"></path>
                                                    <path d="M36.64667,15.5603 C37.60095,21.37768 32.64276,26.33593 26.82532,25.38159 C23.30249,24.80371 20.46121,21.9624 19.8833,18.4397 C18.92902,12.62232 23.88721,7.66407 29.70465,8.61841 C33.22748,9.19629 36.06876,12.0376 36.64667,15.5603 L36.64667,15.5603 Z" fill="#FFFFFF"></path>
                                                </g>
                                            </g>
                                            <g transform="translate(56.000000, 37.000000)">
                                                <g id="SVGID_38_-link" fill="#422B22" sketch:type="MSShapeGroup">
                                                    <path d="M4.57198,0 C2.28411,0 0.4,1.62354 0.4,3.72827 L0.4,3.78833 C0.39999,16.77734 10.08974,27 22,27 C33.91025,27 43.60001,17.01782 43.60001,3.96875 L43.60001,3.72827 C43.60001,1.68359 41.71589,0.06006 39.42804,0.06006 L4.57198,0 L4.57198,0 L4.57198,0 L4.57198,0 Z" id="SVGID_38_"></path>
                                                </g>
                                                <g id="Clipped">
                                                    <mask id="mask-24" sketch:name="SVGID_38_" fill="white">
                                                        <use xlink:href="#path-23"></use>
                                                    </mask>
                                                    <g id="SVGID_38_"></g>
                                                    <path d="M36.71869,23.44189 C34.99521,18.08471 26.37788,14 16.0371,14 C10.41709,14 5.24668,15.20532 1.50001,17.21436 C5.77121,24.37939 13.26454,29 21.73201,29 C27.35201,28.93311 32.59735,26.92407 36.71869,23.44189 L36.71869,23.44189 Z" id="Shape" fill="#EF5734" sketch:type="MSShapeGroup" mask="url(#mask-24)"></path>
                                                </g>
                                            </g>
                                        </g>
                                    </g>
                                    <g transform="translate(202.330250, 189.573033) scale(-1, -1) rotate(26.000000) translate(-202.330250, -189.573033) translate(41.830250, 57.573033)" sketch:type="MSShapeGroup">
                                        <path d="M237.935675,173.120071 C240.249456,167.823821 270.262236,168.601993 266.469709,131.024627 C262.677183,93.447261 246.603441,86.1959761 233.545631,83.9862775 C227.32203,82.319284 192.515434,85.2156163 182.172363,90.5427479 C171.829292,95.8698795 165.448876,99.2108334 162.38485,107.09072 C156.678828,121.765141 156.899931,123.858234 155.458283,133.915225 C154.016634,143.972217 158.677208,145.239387 165.328206,158.064361 C168.396647,163.981168 192.723482,156.536536 192.723482,160.807265 C192.723482,165.077994 177.481527,183.808513 184.595583,179.218757" id="Shape" fill="url(#linearGradient-25)"></path>
                                        <path d="M168.002266,155.317861 C168.188882,151.216102 171.831839,152.617575 175.801878,149.159907 C179.040893,146.338918 182.050051,138.220222 187.260994,138.220222 C198.858984,138.220222 195.483375,151.719126 192.927903,159.670496 C192.927903,159.670496 167.683906,162.314691 168.002266,155.317861 Z" id="Shape" fill="url(#linearGradient-26)"></path>
                                        <path d="M254.723418,96.2146433 C238.061894,75.6909524 195.492075,79.110756 175.827198,93.717092 C143.073664,118.045193 159.431637,164.957419 174.379475,149.805938 C181.943449,142.138914 172.917622,137.570174 194.198826,137.570174" id="Shape-Copy-8" stroke="#422B22" stroke-width="4.5"></path>
                                        <path d="M173.810307,182.082996 C197.816757,174.483579 195.54977,153.049495 195.54977,140.051619 C195.54977,127.053744 188.051914,107.434139 178.500584,107.434139 C168.949253,107.434139 162.26379,138.918318 173.810307,147.435421" id="Shape-Copy-9" stroke="#422B22" stroke-width="4.5"></path>
                                        <path d="M184.683,110.331547 C178.247343,115.123097 174.568864,131.761589 179.101143,138.844223" id="Shape-Copy-11" stroke="#422B22" stroke-width="4.5"></path>
                                        <path d="M189.886841,118.162781 C185.320935,124.695963 185.791899,134.500374 188.101143,138.844223" id="Shape-Copy-12" stroke="#422B22" stroke-width="4.5"></path>
                                        <path d="M157.01792,126.086514 C153.047392,163.245881 180.43558,163.979881 194.123443,159.507739" id="Shape-Copy-10" stroke="#422B22" stroke-width="4.5"></path>
                                        <path d="M175.512219,181.479884 C202.22073,181.479884 207.54977,159.764162 207.54977,140.051619 C207.549771,120.339077 195.454202,95.5009189 180.172333,95.5009189 C164.890463,95.5009189 160.119675,113.648508 160.119675,113.648508" id="Shape-Copy-2" stroke="#422B22" stroke-width="4.5"></path>
                                        <path d="M187.512219,179.479884 C214.22073,179.479884 219.54977,157.764162 219.54977,138.051619 C219.549771,118.339077 209.015594,91.6962668 191.685118,91.6962668 C174.354642,91.6962668 168.375007,100.853411 168.375007,100.853411" id="Shape-Copy-3" stroke="#422B22" stroke-width="4.5"></path>
                                        <path d="M199.512219,177.479884 C226.22073,177.479884 231.54977,155.764162 231.54977,136.051619 C231.549771,116.339077 220.196186,87.7024008 202.768026,87.7024008 C185.339866,87.7024008 179.990989,93.203386 179.990989,93.203386" id="Shape-Copy-4" stroke="#422B22" stroke-width="4.5"></path>
                                        <path d="M210.512219,175.479884 C237.22073,175.479884 242.54977,153.764162 242.54977,134.051619 C242.549771,114.339077 231.114428,84.5207046 212.131703,84.5207046 C193.148978,84.5207046 189.893321,88.6387684 189.893321,88.6387684" id="Shape-Copy-5" stroke="#422B22" stroke-width="4.5"></path>
                                        <path d="M221.512219,173.479884 C248.22073,173.479884 254.548735,151.443757 254.548735,131.731215 C254.548736,112.018672 242.114428,82.5207046 223.131703,82.5207046 C204.148978,82.5207046 200.893321,86.6387684 200.893321,86.6387684" id="Shape-Copy-6" stroke="#422B22" stroke-width="4.5"></path>
                                        <path d="M231.512219,172.479884 C258.22073,172.479884 265.518608,149.967339 265.518608,130.254796 C265.518609,110.542254 254.042177,84.8653884 235.059451,84.8653884" id="Shape-Copy-7" stroke="#422B22" stroke-width="4.5"></path>
                                    </g>
                                </g>
                                <g transform="translate(172.000000, 123.000000)"></g>
                                <g transform="translate(109.000000, 137.000000)" fill="#FFFFFF" sketch:type="MSShapeGroup">
                                    <path d="M5.81160594,14.3493496 C6.71433287,14.3493496 6.00763065,11.2533235 6.00763065,7.61035034 C6.00763065,3.9673772 6.71433287,1.1569769 5.81160594,1.1569769 C4.90887902,1.1569769 2.73856728,3.9673772 2.73856728,7.61035034 C2.73856728,11.2533235 4.90887902,14.3493496 5.81160594,14.3493496 Z" id="Oval" transform="translate(4.503992, 7.754114) rotate(21.522697) translate(-4.503992, -7.754114) "></path>
                                    <path d="M17.8116059,15.3493496 C18.7143329,15.3493496 18.0076307,12.2533235 18.0076307,8.61035034 C18.0076307,4.9673772 18.7143329,2.1569769 17.8116059,2.1569769 C16.908879,2.1569769 14.7385673,4.9673772 14.7385673,8.61035034 C14.7385673,12.2533235 16.908879,15.3493496 17.8116059,15.3493496 Z" id="Oval-Copy" transform="translate(16.503992, 8.754114) rotate(24.522697) translate(-16.503992, -8.754114) "></path>
                                    <path d="M29.8116059,17.3493496 C30.7143329,17.3493496 30.0076307,14.2533235 30.0076307,10.6103503 C30.0076307,6.9673772 30.7143329,4.1569769 29.8116059,4.1569769 C28.908879,4.1569769 26.7385673,6.9673772 26.7385673,10.6103503 C26.7385673,14.2533235 28.908879,17.3493496 29.8116059,17.3493496 Z" id="Oval-Copy-2" transform="translate(28.503992, 10.754114) rotate(24.522697) translate(-28.503992, -10.754114) "></path>
                                    <path d="M41.8116059,19.3493496 C42.7143329,19.3493496 42.0076307,16.2533235 42.0076307,12.6103503 C42.0076307,8.9673772 42.7143329,6.1569769 41.8116059,6.1569769 C40.908879,6.1569769 38.7385673,8.9673772 38.7385673,12.6103503 C38.7385673,16.2533235 40.908879,19.3493496 41.8116059,19.3493496 Z" id="Oval-Copy-3" transform="translate(40.503992, 12.754114) rotate(26.522697) translate(-40.503992, -12.754114) "></path>
                                    <path d="M52.8116059,23.3493496 C53.7143329,23.3493496 53.0076307,20.2533235 53.0076307,16.6103503 C53.0076307,12.9673772 53.7143329,10.1569769 52.8116059,10.1569769 C51.908879,10.1569769 49.7385673,12.9673772 49.7385673,16.6103503 C49.7385673,20.2533235 51.908879,23.3493496 52.8116059,23.3493496 Z" id="Oval-Copy-4" transform="translate(51.503992, 16.754114) rotate(24.522697) translate(-51.503992, -16.754114) "></path>
                                    <path d="M63.8116059,28.3493496 C64.7143329,28.3493496 64.0076307,25.2533235 64.0076307,21.6103503 C64.0076307,17.9673772 64.7143329,15.1569769 63.8116059,15.1569769 C62.908879,15.1569769 60.7385673,17.9673772 60.7385673,21.6103503 C60.7385673,25.2533235 62.908879,28.3493496 63.8116059,28.3493496 Z" id="Oval-Copy-5" transform="translate(62.503992, 21.754114) rotate(27.522697) translate(-62.503992, -21.754114) "></path>
                                </g>
                            </g>
                        </g>
                    </g>
                </g>
            </g>
        </g>
    </g>
</svg>